<svg width="18" height="16" viewBox="0 0 18 16" fill="none" xmlns="http://www.w3.org/2000/svg">
<path d="M7.57606 12.5467C7.44025 12.5467 7.30444 12.5 7.19722 12.4L2.85835 8.35335C2.65106 8.16002 2.65106 7.84002 2.85835 7.64668L7.19722 3.60002C7.40451 3.40668 7.74762 3.40668 7.95491 3.60002C8.16221 3.79335 8.16221 4.11335 7.95491 4.30668L3.99489 8.00002L7.95491 11.6934C8.16221 11.8867 8.16221 12.2067 7.95491 12.4C7.85484 12.5 7.71188 12.5467 7.57606 12.5467Z" fill="#767676"/>
<path d="M15.3889 8.5H3.35874C3.06567 8.5 2.82263 8.27333 2.82263 8C2.82263 7.72667 3.06567 7.5 3.35874 7.5H15.3889C15.682 7.5 15.925 7.72667 15.925 8C15.925 8.27333 15.682 8.5 15.3889 8.5Z" fill="#767676"/>
</svg>
