<svg width="145" height="15" viewBox="0 0 145 15" fill="none" xmlns="http://www.w3.org/2000/svg">
<g filter="url(#filter0_f_2509_45543)">
<path d="M72.4905 4.02927C72.4935 4.02006 72.5065 4.02006 72.5095 4.02927L72.61 4.33858C72.6114 4.3427 72.6152 4.34549 72.6195 4.34549H72.9448C72.9544 4.34549 72.9585 4.35789 72.9506 4.36358L72.6875 4.55475C72.684 4.55729 72.6825 4.56181 72.6839 4.56593L72.7844 4.87524C72.7874 4.88445 72.7768 4.89211 72.769 4.88642L72.5059 4.69525C72.5024 4.69271 72.4976 4.69271 72.4941 4.69525L72.231 4.88642C72.2232 4.89211 72.2126 4.88445 72.2156 4.87524L72.3161 4.56593C72.3175 4.56181 72.316 4.55729 72.3125 4.55475L72.0494 4.36358C72.0415 4.35789 72.0456 4.34549 72.0552 4.34549H72.3805C72.3848 4.34549 72.3886 4.3427 72.39 4.33858L72.4905 4.02927Z" fill="white"/>
</g>
<g filter="url(#filter1_f_2509_45543)">
<path d="M74.4905 9.02927C74.4935 9.02006 74.5065 9.02006 74.5095 9.02927L74.61 9.33858C74.6114 9.3427 74.6152 9.34549 74.6195 9.34549H74.9448C74.9544 9.34549 74.9585 9.35789 74.9506 9.36358L74.6875 9.55475C74.684 9.55729 74.6825 9.56181 74.6839 9.56593L74.7844 9.87524C74.7874 9.88445 74.7768 9.89211 74.769 9.88642L74.5059 9.69525C74.5024 9.69271 74.4976 9.69271 74.4941 9.69525L74.231 9.88642C74.2232 9.89211 74.2126 9.88445 74.2156 9.87524L74.3161 9.56593C74.3175 9.56181 74.316 9.55729 74.3125 9.55475L74.0494 9.36358C74.0415 9.35789 74.0456 9.34549 74.0552 9.34549H74.3805C74.3848 9.34549 74.3886 9.3427 74.39 9.33858L74.4905 9.02927Z" fill="white"/>
</g>
<g filter="url(#filter2_f_2509_45543)">
<path d="M79.4905 7.02927C79.4935 7.02006 79.5065 7.02006 79.5095 7.02927L79.61 7.33858C79.6114 7.3427 79.6152 7.34549 79.6195 7.34549H79.9448C79.9544 7.34549 79.9585 7.35789 79.9506 7.36358L79.6875 7.55475C79.684 7.55729 79.6825 7.56181 79.6839 7.56593L79.7844 7.87524C79.7874 7.88445 79.7768 7.89211 79.769 7.88642L79.5059 7.69525C79.5024 7.69271 79.4976 7.69271 79.4941 7.69525L79.231 7.88642C79.2232 7.89211 79.2126 7.88445 79.2156 7.87524L79.3161 7.56593C79.3175 7.56181 79.316 7.55729 79.3125 7.55475L79.0494 7.36358C79.0415 7.35789 79.0456 7.34549 79.0552 7.34549H79.3805C79.3848 7.34549 79.3886 7.3427 79.39 7.33858L79.4905 7.02927Z" fill="white"/>
</g>
<g filter="url(#filter3_f_2509_45543)">
<path d="M76.4905 12.0293C76.4935 12.0201 76.5065 12.0201 76.5095 12.0293L76.61 12.3386C76.6114 12.3427 76.6152 12.3455 76.6195 12.3455H76.9448C76.9544 12.3455 76.9585 12.3579 76.9506 12.3636L76.6875 12.5547C76.684 12.5573 76.6825 12.5618 76.6839 12.5659L76.7844 12.8752C76.7874 12.8845 76.7768 12.8921 76.769 12.8864L76.5059 12.6953C76.5024 12.6927 76.4976 12.6927 76.4941 12.6953L76.231 12.8864C76.2232 12.8921 76.2126 12.8845 76.2156 12.8752L76.3161 12.5659C76.3175 12.5618 76.316 12.5573 76.3125 12.5547L76.0494 12.3636C76.0415 12.3579 76.0456 12.3455 76.0552 12.3455H76.3805C76.3848 12.3455 76.3886 12.3427 76.39 12.3386L76.4905 12.0293Z" fill="white"/>
</g>
<g filter="url(#filter4_f_2509_45543)">
<path d="M58.4905 4.02927C58.4935 4.02006 58.5065 4.02006 58.5095 4.02927L58.61 4.33858C58.6114 4.3427 58.6152 4.34549 58.6195 4.34549H58.9448C58.9544 4.34549 58.9585 4.35789 58.9506 4.36358L58.6875 4.55475C58.684 4.55729 58.6825 4.56181 58.6839 4.56593L58.7844 4.87524C58.7874 4.88445 58.7768 4.89211 58.769 4.88642L58.5059 4.69525C58.5024 4.69271 58.4976 4.69271 58.4941 4.69525L58.231 4.88642C58.2232 4.89211 58.2126 4.88445 58.2156 4.87524L58.3161 4.56593C58.3175 4.56181 58.316 4.55729 58.3125 4.55475L58.0494 4.36358C58.0415 4.35789 58.0456 4.34549 58.0552 4.34549H58.3805C58.3848 4.34549 58.3886 4.3427 58.39 4.33858L58.4905 4.02927Z" fill="white"/>
</g>
<g filter="url(#filter5_f_2509_45543)">
<path d="M68.4905 11.0293C68.4935 11.0201 68.5065 11.0201 68.5095 11.0293L68.61 11.3386C68.6114 11.3427 68.6152 11.3455 68.6195 11.3455H68.9448C68.9544 11.3455 68.9585 11.3579 68.9506 11.3636L68.6875 11.5547C68.684 11.5573 68.6825 11.5618 68.6839 11.5659L68.7844 11.8752C68.7874 11.8845 68.7768 11.8921 68.769 11.8864L68.5059 11.6953C68.5024 11.6927 68.4976 11.6927 68.4941 11.6953L68.231 11.8864C68.2232 11.8921 68.2126 11.8845 68.2156 11.8752L68.3161 11.5659C68.3175 11.5618 68.316 11.5573 68.3125 11.5547L68.0494 11.3636C68.0415 11.3579 68.0456 11.3455 68.0552 11.3455H68.3805C68.3848 11.3455 68.3886 11.3427 68.39 11.3386L68.4905 11.0293Z" fill="white"/>
</g>
<g filter="url(#filter6_f_2509_45543)">
<path d="M52.4905 9.02927C52.4935 9.02006 52.5065 9.02006 52.5095 9.02927L52.61 9.33858C52.6114 9.3427 52.6152 9.34549 52.6195 9.34549H52.9448C52.9544 9.34549 52.9585 9.35789 52.9506 9.36358L52.6875 9.55475C52.684 9.55729 52.6825 9.56181 52.6839 9.56593L52.7844 9.87524C52.7874 9.88445 52.7768 9.89211 52.769 9.88642L52.5059 9.69525C52.5024 9.69271 52.4976 9.69271 52.4941 9.69525L52.231 9.88642C52.2232 9.89211 52.2126 9.88445 52.2156 9.87524L52.3161 9.56593C52.3175 9.56181 52.316 9.55729 52.3125 9.55475L52.0494 9.36358C52.0415 9.35789 52.0456 9.34549 52.0552 9.34549H52.3805C52.3848 9.34549 52.3886 9.3427 52.39 9.33858L52.4905 9.02927Z" fill="white"/>
</g>
<g filter="url(#filter7_f_2509_45543)">
<path d="M36.4905 11.0293C36.4935 11.0201 36.5065 11.0201 36.5095 11.0293L36.61 11.3386C36.6114 11.3427 36.6152 11.3455 36.6195 11.3455H36.9448C36.9544 11.3455 36.9585 11.3579 36.9506 11.3636L36.6875 11.5547C36.684 11.5573 36.6825 11.5618 36.6839 11.5659L36.7844 11.8752C36.7874 11.8845 36.7768 11.8921 36.769 11.8864L36.5059 11.6953C36.5024 11.6927 36.4976 11.6927 36.4941 11.6953L36.231 11.8864C36.2232 11.8921 36.2126 11.8845 36.2156 11.8752L36.3161 11.5659C36.3175 11.5618 36.316 11.5573 36.3125 11.5547L36.0494 11.3636C36.0415 11.3579 36.0456 11.3455 36.0552 11.3455H36.3805C36.3848 11.3455 36.3886 11.3427 36.39 11.3386L36.4905 11.0293Z" fill="white"/>
</g>
<g filter="url(#filter8_f_2509_45543)">
<path d="M98.4905 13.0293C98.4935 13.0201 98.5065 13.0201 98.5095 13.0293L98.61 13.3386C98.6114 13.3427 98.6152 13.3455 98.6195 13.3455H98.9448C98.9544 13.3455 98.9585 13.3579 98.9506 13.3636L98.6875 13.5547C98.684 13.5573 98.6825 13.5618 98.6839 13.5659L98.7844 13.8752C98.7874 13.8845 98.7768 13.8921 98.769 13.8864L98.5059 13.6953C98.5024 13.6927 98.4976 13.6927 98.4941 13.6953L98.231 13.8864C98.2232 13.8921 98.2126 13.8845 98.2156 13.8752L98.3161 13.5659C98.3175 13.5618 98.316 13.5573 98.3125 13.5547L98.0494 13.3636C98.0415 13.3579 98.0456 13.3455 98.0552 13.3455H98.3805C98.3848 13.3455 98.3886 13.3427 98.39 13.3386L98.4905 13.0293Z" fill="white"/>
</g>
<g filter="url(#filter9_f_2509_45543)">
<path d="M100.49 8.02927C100.493 8.02006 100.507 8.02006 100.51 8.02927L100.61 8.33858C100.611 8.3427 100.615 8.34549 100.62 8.34549H100.945C100.954 8.34549 100.958 8.35789 100.951 8.36358L100.688 8.55475C100.684 8.55729 100.683 8.56181 100.684 8.56593L100.784 8.87524C100.787 8.88445 100.777 8.89211 100.769 8.88642L100.506 8.69525C100.502 8.69271 100.498 8.69271 100.494 8.69525L100.231 8.88642C100.223 8.89211 100.213 8.88445 100.216 8.87524L100.316 8.56593C100.317 8.56181 100.316 8.55729 100.312 8.55475L100.049 8.36358C100.042 8.35789 100.046 8.34549 100.055 8.34549H100.38C100.385 8.34549 100.389 8.3427 100.39 8.33858L100.49 8.02927Z" fill="white"/>
</g>
<g filter="url(#filter10_f_2509_45543)">
<path d="M66.4905 7.02927C66.4935 7.02006 66.5065 7.02006 66.5095 7.02927L66.61 7.33858C66.6114 7.3427 66.6152 7.34549 66.6195 7.34549H66.9448C66.9544 7.34549 66.9585 7.35789 66.9506 7.36358L66.6875 7.55475C66.684 7.55729 66.6825 7.56181 66.6839 7.56593L66.7844 7.87524C66.7874 7.88445 66.7768 7.89211 66.769 7.88642L66.5059 7.69525C66.5024 7.69271 66.4976 7.69271 66.4941 7.69525L66.231 7.88642C66.2232 7.89211 66.2126 7.88445 66.2156 7.87524L66.3161 7.56593C66.3175 7.56181 66.316 7.55729 66.3125 7.55475L66.0494 7.36358C66.0415 7.35789 66.0456 7.34549 66.0552 7.34549H66.3805C66.3848 7.34549 66.3886 7.3427 66.39 7.33858L66.4905 7.02927Z" fill="white"/>
</g>
<g filter="url(#filter11_f_2509_45543)">
<path d="M26 6L112 5.99999" stroke="url(#paint0_radial_2509_45543)" stroke-linecap="round"/>
</g>
<path d="M1 6L144 6.00001" stroke="url(#paint1_radial_2509_45543)" stroke-linecap="round"/>
<defs>
<filter id="filter0_f_2509_45543" x="71.7449" y="3.72246" width="1.51016" height="1.46572" filterUnits="userSpaceOnUse" color-interpolation-filters="sRGB">
<feFlood flood-opacity="0" result="BackgroundImageFix"/>
<feBlend mode="normal" in="SourceGraphic" in2="BackgroundImageFix" result="shape"/>
<feGaussianBlur stdDeviation="0.15" result="effect1_foregroundBlur_2509_45543"/>
</filter>
<filter id="filter1_f_2509_45543" x="73.7449" y="8.72246" width="1.51016" height="1.46572" filterUnits="userSpaceOnUse" color-interpolation-filters="sRGB">
<feFlood flood-opacity="0" result="BackgroundImageFix"/>
<feBlend mode="normal" in="SourceGraphic" in2="BackgroundImageFix" result="shape"/>
<feGaussianBlur stdDeviation="0.15" result="effect1_foregroundBlur_2509_45543"/>
</filter>
<filter id="filter2_f_2509_45543" x="78.7449" y="6.72246" width="1.51016" height="1.46572" filterUnits="userSpaceOnUse" color-interpolation-filters="sRGB">
<feFlood flood-opacity="0" result="BackgroundImageFix"/>
<feBlend mode="normal" in="SourceGraphic" in2="BackgroundImageFix" result="shape"/>
<feGaussianBlur stdDeviation="0.15" result="effect1_foregroundBlur_2509_45543"/>
</filter>
<filter id="filter3_f_2509_45543" x="75.7449" y="11.7225" width="1.51016" height="1.46572" filterUnits="userSpaceOnUse" color-interpolation-filters="sRGB">
<feFlood flood-opacity="0" result="BackgroundImageFix"/>
<feBlend mode="normal" in="SourceGraphic" in2="BackgroundImageFix" result="shape"/>
<feGaussianBlur stdDeviation="0.15" result="effect1_foregroundBlur_2509_45543"/>
</filter>
<filter id="filter4_f_2509_45543" x="57.7449" y="3.72246" width="1.51016" height="1.46572" filterUnits="userSpaceOnUse" color-interpolation-filters="sRGB">
<feFlood flood-opacity="0" result="BackgroundImageFix"/>
<feBlend mode="normal" in="SourceGraphic" in2="BackgroundImageFix" result="shape"/>
<feGaussianBlur stdDeviation="0.15" result="effect1_foregroundBlur_2509_45543"/>
</filter>
<filter id="filter5_f_2509_45543" x="67.7449" y="10.7225" width="1.51016" height="1.46572" filterUnits="userSpaceOnUse" color-interpolation-filters="sRGB">
<feFlood flood-opacity="0" result="BackgroundImageFix"/>
<feBlend mode="normal" in="SourceGraphic" in2="BackgroundImageFix" result="shape"/>
<feGaussianBlur stdDeviation="0.15" result="effect1_foregroundBlur_2509_45543"/>
</filter>
<filter id="filter6_f_2509_45543" x="51.7449" y="8.72246" width="1.51016" height="1.46572" filterUnits="userSpaceOnUse" color-interpolation-filters="sRGB">
<feFlood flood-opacity="0" result="BackgroundImageFix"/>
<feBlend mode="normal" in="SourceGraphic" in2="BackgroundImageFix" result="shape"/>
<feGaussianBlur stdDeviation="0.15" result="effect1_foregroundBlur_2509_45543"/>
</filter>
<filter id="filter7_f_2509_45543" x="35.7449" y="10.7225" width="1.51016" height="1.46572" filterUnits="userSpaceOnUse" color-interpolation-filters="sRGB">
<feFlood flood-opacity="0" result="BackgroundImageFix"/>
<feBlend mode="normal" in="SourceGraphic" in2="BackgroundImageFix" result="shape"/>
<feGaussianBlur stdDeviation="0.15" result="effect1_foregroundBlur_2509_45543"/>
</filter>
<filter id="filter8_f_2509_45543" x="97.7449" y="12.7225" width="1.51016" height="1.46572" filterUnits="userSpaceOnUse" color-interpolation-filters="sRGB">
<feFlood flood-opacity="0" result="BackgroundImageFix"/>
<feBlend mode="normal" in="SourceGraphic" in2="BackgroundImageFix" result="shape"/>
<feGaussianBlur stdDeviation="0.15" result="effect1_foregroundBlur_2509_45543"/>
</filter>
<filter id="filter9_f_2509_45543" x="99.7449" y="7.72246" width="1.51016" height="1.46572" filterUnits="userSpaceOnUse" color-interpolation-filters="sRGB">
<feFlood flood-opacity="0" result="BackgroundImageFix"/>
<feBlend mode="normal" in="SourceGraphic" in2="BackgroundImageFix" result="shape"/>
<feGaussianBlur stdDeviation="0.15" result="effect1_foregroundBlur_2509_45543"/>
</filter>
<filter id="filter10_f_2509_45543" x="65.7449" y="6.72246" width="1.51016" height="1.46572" filterUnits="userSpaceOnUse" color-interpolation-filters="sRGB">
<feFlood flood-opacity="0" result="BackgroundImageFix"/>
<feBlend mode="normal" in="SourceGraphic" in2="BackgroundImageFix" result="shape"/>
<feGaussianBlur stdDeviation="0.15" result="effect1_foregroundBlur_2509_45543"/>
</filter>
<filter id="filter11_f_2509_45543" x="20.5" y="0.5" width="97" height="11" filterUnits="userSpaceOnUse" color-interpolation-filters="sRGB">
<feFlood flood-opacity="0" result="BackgroundImageFix"/>
<feBlend mode="normal" in="SourceGraphic" in2="BackgroundImageFix" result="shape"/>
<feGaussianBlur stdDeviation="2.5" result="effect1_foregroundBlur_2509_45543"/>
</filter>
<radialGradient id="paint0_radial_2509_45543" cx="0" cy="0" r="1" gradientUnits="userSpaceOnUse" gradientTransform="translate(69 6.75) rotate(90) scale(7.25 31.55)">
<stop stop-color="white"/>
<stop offset="1" stop-color="#020308" stop-opacity="0"/>
</radialGradient>
<radialGradient id="paint1_radial_2509_45543" cx="0" cy="0" r="1" gradientUnits="userSpaceOnUse" gradientTransform="translate(72.5 6.75001) rotate(90) scale(7.25 52.461)">
<stop stop-color="white"/>
<stop offset="1" stop-color="#020308" stop-opacity="0"/>
</radialGradient>
</defs>
</svg>
