<svg width="369" height="488" viewBox="0 0 369 488" fill="none" xmlns="http://www.w3.org/2000/svg">
<g clip-path="url(#clip0_2509_51753)">
<rect x="126" y="10" width="191" height="411" rx="20" fill="black"/>
<rect width="191" height="24" transform="translate(126 33)" fill="black"/>
<g clip-path="url(#clip1_2509_51753)">
<path d="M152.14 41.5616C151.973 40.9466 151.485 40.4633 150.863 40.2987C149.737 40 145.221 40 145.221 40C145.221 40 140.705 40 139.579 40.2987C138.957 40.4633 138.468 40.9466 138.302 41.5616C138 42.6752 138 45 138 45C138 45 138 47.3248 138.302 48.4384C138.468 49.0534 138.957 49.5367 139.579 49.7013C140.705 50 145.221 50 145.221 50C145.221 50 149.737 50 150.863 49.7013C151.485 49.5367 151.973 49.0534 152.14 48.4384C152.442 47.3248 152.442 45 152.442 45C152.442 45 152.441 42.6752 152.14 41.5616Z" fill="#FF0000"/>
<path d="M143.84 47.1425L147.634 45L143.84 42.8574V47.1425Z" fill="white"/>
<path d="M155.685 46.5016L154.046 40.709H155.476L156.051 43.3348C156.198 43.9816 156.305 44.5331 156.374 44.9893H156.416C156.464 44.6624 156.573 44.1144 156.74 43.3442L157.335 40.709H158.765L157.105 46.5016V49.2803H155.684V46.5016H155.685Z" fill="white"/>
<path d="M159.196 49.0971C158.907 48.9066 158.702 48.6102 158.579 48.2081C158.458 47.8059 158.396 47.2721 158.396 46.6041V45.6951C158.396 45.0213 158.466 44.4793 158.606 44.0712C158.745 43.6632 158.963 43.3645 159.258 43.1775C159.554 42.9906 159.942 42.8965 160.423 42.8965C160.897 42.8965 161.275 42.9917 161.561 43.1822C161.846 43.3727 162.055 43.6714 162.188 44.0759C162.32 44.4816 162.386 45.0213 162.386 45.6951V46.6041C162.386 47.2721 162.321 47.8083 162.193 48.2128C162.064 48.6185 161.855 48.9148 161.566 49.1018C161.278 49.2888 160.886 49.3828 160.392 49.3828C159.882 49.384 159.484 49.2876 159.196 49.0971ZM160.814 48.1164C160.893 47.9118 160.934 47.579 160.934 47.1157V45.1648C160.934 44.7156 160.894 44.3864 160.814 44.1794C160.733 43.9713 160.593 43.8678 160.391 43.8678C160.196 43.8678 160.058 43.9713 159.978 44.1794C159.898 44.3875 159.858 44.7156 159.858 45.1648V47.1157C159.858 47.579 159.897 47.9129 159.974 48.1164C160.05 48.321 160.189 48.4233 160.391 48.4233C160.593 48.4233 160.733 48.321 160.814 48.1164Z" fill="white"/>
<path d="M167.039 49.2817H165.912L165.787 48.515H165.755C165.449 49.0935 164.99 49.3828 164.377 49.3828C163.952 49.3828 163.639 49.2464 163.437 48.9748C163.235 48.7019 163.134 48.2763 163.134 47.6977V43.0188H164.575V47.6154C164.575 47.8953 164.606 48.094 164.669 48.2128C164.731 48.3315 164.836 48.3915 164.983 48.3915C165.108 48.3915 165.228 48.3539 165.343 48.2786C165.459 48.2033 165.543 48.1081 165.599 47.9929V43.0176H167.039V49.2817Z" fill="white"/>
<path d="M170.954 41.8435H169.523V49.2812H168.113V41.8435H166.683V40.71H170.954V41.8435Z" fill="white"/>
<path d="M174.43 49.2817H173.302L173.177 48.515H173.146C172.84 49.0935 172.38 49.3828 171.767 49.3828C171.343 49.3828 171.029 49.2464 170.827 48.9748C170.625 48.7019 170.524 48.2763 170.524 47.6977V43.0188H171.966V47.6154C171.966 47.8953 171.997 48.094 172.059 48.2128C172.122 48.3315 172.227 48.3915 172.373 48.3915C172.498 48.3915 172.618 48.3539 172.734 48.2786C172.849 48.2033 172.933 48.1081 172.99 47.9929V43.0176H174.43V49.2817Z" fill="white"/>
<path d="M179.199 44.0191C179.112 43.624 178.971 43.3383 178.776 43.1607C178.582 42.9831 178.314 42.8949 177.972 42.8949C177.708 42.8949 177.46 42.9678 177.231 43.1148C177.001 43.2618 176.823 43.4535 176.698 43.6922H176.687V40.3926H175.299V49.2802H176.489L176.635 48.6875H176.667C176.779 48.8992 176.946 49.065 177.168 49.1885C177.39 49.3108 177.638 49.3719 177.91 49.3719C178.397 49.3719 178.756 49.152 178.986 48.7134C179.215 48.2736 179.33 47.588 179.33 46.6544V45.6631C179.33 44.9634 179.286 44.4142 179.199 44.0191ZM177.878 46.5744C177.878 47.0306 177.859 47.3881 177.821 47.6468C177.782 47.9055 177.719 48.0902 177.627 48.1983C177.537 48.3077 177.414 48.3618 177.262 48.3618C177.143 48.3618 177.033 48.3347 176.932 48.2795C176.831 48.2254 176.75 48.1431 176.687 48.0349V44.4801C176.735 44.3096 176.819 44.1708 176.938 44.0614C177.056 43.9521 177.186 43.898 177.324 43.898C177.471 43.898 177.584 43.9544 177.663 44.0661C177.744 44.179 177.799 44.3672 177.83 44.6329C177.862 44.8987 177.877 45.2762 177.877 45.7665V46.5744H177.878Z" fill="white"/>
<path d="M181.376 46.9354C181.376 47.3375 181.388 47.6386 181.412 47.8397C181.436 48.0407 181.486 48.1866 181.563 48.2795C181.64 48.3712 181.758 48.417 181.918 48.417C182.133 48.417 182.282 48.3347 182.361 48.1713C182.442 48.0078 182.485 47.735 182.492 47.354L183.735 47.4257C183.742 47.4798 183.746 47.5551 183.746 47.6503C183.746 48.2289 183.584 48.6616 183.26 48.9474C182.937 49.2331 182.479 49.3766 181.888 49.3766C181.177 49.3766 180.68 49.159 180.395 48.7228C180.109 48.2865 179.967 47.6127 179.967 46.7002V45.6066C179.967 44.667 180.115 43.9803 180.41 43.5475C180.706 43.1148 181.212 42.8984 181.93 42.8984C182.424 42.8984 182.804 42.9866 183.068 43.1642C183.333 43.3418 183.519 43.6169 183.627 43.992C183.735 44.3672 183.789 44.8846 183.789 45.5454V46.6179H181.376V46.9354ZM181.558 43.9838C181.485 44.072 181.437 44.2166 181.412 44.4177C181.388 44.6188 181.376 44.9234 181.376 45.3326V45.7818H182.43V45.3326C182.43 44.9304 182.415 44.6259 182.388 44.4177C182.36 44.2096 182.31 44.0638 182.236 43.9779C182.163 43.8933 182.05 43.8498 181.897 43.8498C181.743 43.8509 181.63 43.8956 181.558 43.9838Z" fill="white"/>
</g>
<path fill-rule="evenodd" clip-rule="evenodd" d="M255.167 40.333H266.834V49.6663H262.167V49.083H266.25V40.9163H255.75V42.6663H255.167V40.333Z" fill="white"/>
<path fill-rule="evenodd" clip-rule="evenodd" d="M255.167 43.833C255.933 43.833 256.692 43.9839 257.399 44.277C258.107 44.5702 258.75 44.9999 259.292 45.5416C259.833 46.0832 260.263 46.7263 260.556 47.434C260.849 48.1418 261 48.9003 261 49.6663H259.834C259.834 49.0535 259.713 48.4467 259.478 47.8805C259.244 47.3143 258.9 46.7998 258.467 46.3665C258.033 45.9332 257.519 45.5894 256.953 45.3549C256.387 45.1204 255.78 44.9997 255.167 44.9997V43.833Z" fill="white"/>
<path fill-rule="evenodd" clip-rule="evenodd" d="M255.167 45.875C255.665 45.875 256.158 45.9731 256.618 46.1636C257.078 46.3542 257.496 46.6335 257.848 46.9856C258.2 47.3376 258.479 47.7556 258.67 48.2157C258.861 48.6757 258.959 49.1687 258.959 49.6667H257.792C257.792 49.3219 257.724 48.9806 257.592 48.6621C257.46 48.3436 257.267 48.0543 257.023 47.8105C256.779 47.5668 256.49 47.3734 256.172 47.2415C255.853 47.1096 255.512 47.0417 255.167 47.0417L255.167 45.875Z" fill="white"/>
<path d="M256.917 49.667C256.917 49.4372 256.872 49.2096 256.784 48.9973C256.696 48.785 256.567 48.5921 256.404 48.4296C256.242 48.2671 256.049 48.1381 255.837 48.0502C255.624 47.9623 255.397 47.917 255.167 47.917L255.167 49.667H256.917Z" fill="white"/>
<path fill-rule="evenodd" clip-rule="evenodd" d="M280 41.2083C278.389 41.2083 277.083 42.5142 277.083 44.125V47.1625L275.916 48.3291V48.5H284.083V48.3291L282.916 47.1625V44.125C282.916 42.5142 281.611 41.2083 280 41.2083ZM276.5 44.125C276.5 42.192 278.067 40.625 280 40.625C281.933 40.625 283.5 42.192 283.5 44.125V46.9209L284.666 48.0875V49.0833H275.333V48.0875L276.5 46.9209V44.125Z" fill="white"/>
<path d="M278.833 40.3337C278.833 39.6893 279.355 39.167 280 39.167C280.644 39.167 281.166 39.6893 281.166 40.3337V40.917H278.833V40.3337Z" fill="white"/>
<path d="M281.166 49.667C281.166 49.8202 281.136 49.9719 281.078 50.1135C281.019 50.255 280.933 50.3836 280.825 50.4919C280.716 50.6003 280.588 50.6862 280.446 50.7449C280.305 50.8035 280.153 50.8337 280 50.8337C279.846 50.8337 279.695 50.8035 279.553 50.7449C279.412 50.6862 279.283 50.6003 279.175 50.4919C279.066 50.3836 278.98 50.255 278.922 50.1135C278.863 49.9719 278.833 49.8202 278.833 49.667L280 49.667H281.166Z" fill="white"/>
<path fill-rule="evenodd" clip-rule="evenodd" d="M297.833 40.3333C295.9 40.3333 294.333 41.9003 294.333 43.8333C294.333 45.7663 295.9 47.3333 297.833 47.3333C299.766 47.3333 301.333 45.7663 301.333 43.8333C301.333 41.9003 299.766 40.3333 297.833 40.3333ZM293.75 43.8333C293.75 41.5782 295.578 39.75 297.833 39.75C300.088 39.75 301.917 41.5782 301.917 43.8333C301.917 46.0885 300.088 47.9167 297.833 47.9167C295.578 47.9167 293.75 46.0885 293.75 43.8333Z" fill="white"/>
<path fill-rule="evenodd" clip-rule="evenodd" d="M303.752 50.1644L300.252 46.6644L300.664 46.252L304.164 49.752L303.752 50.1644Z" fill="white"/>
<mask id="path-20-inside-1_2509_51753" fill="white">
<path d="M126 357H317V389H126V357Z"/>
</mask>
<path d="M126 357H317V389H126V357Z" fill="black"/>
<path d="M126 358H317V356H126V358Z" fill="white" fill-opacity="0.1" mask="url(#path-20-inside-1_2509_51753)"/>
<path fill-rule="evenodd" clip-rule="evenodd" d="M141 361L135.667 365.667V373H139.667V369H142.334V373H146.334V365.667L141 361Z" fill="white"/>
<path d="M135.781 380.568V381.028H133.473V380.568H135.781ZM133.561 378.734V383H132.995V378.734H133.561ZM136.273 378.734V383H135.711V378.734H136.273ZM137.053 381.45V381.383C137.053 381.154 137.086 380.942 137.152 380.747C137.219 380.55 137.314 380.379 137.439 380.234C137.564 380.088 137.716 379.975 137.894 379.895C138.071 379.812 138.271 379.771 138.491 379.771C138.714 379.771 138.914 379.812 139.092 379.895C139.271 379.975 139.424 380.088 139.549 380.234C139.676 380.379 139.772 380.55 139.839 380.747C139.905 380.942 139.938 381.154 139.938 381.383V381.45C139.938 381.679 139.905 381.891 139.839 382.086C139.772 382.281 139.676 382.452 139.549 382.599C139.424 382.743 139.272 382.856 139.095 382.938C138.919 383.019 138.72 383.059 138.497 383.059C138.274 383.059 138.074 383.019 137.896 382.938C137.719 382.856 137.566 382.743 137.439 382.599C137.314 382.452 137.219 382.281 137.152 382.086C137.086 381.891 137.053 381.679 137.053 381.45ZM137.595 381.383V381.45C137.595 381.608 137.613 381.758 137.65 381.898C137.688 382.037 137.743 382.16 137.817 382.268C137.894 382.375 137.988 382.46 138.102 382.522C138.215 382.583 138.347 382.613 138.497 382.613C138.646 382.613 138.775 382.583 138.887 382.522C139 382.46 139.094 382.375 139.168 382.268C139.242 382.16 139.298 382.037 139.335 381.898C139.374 381.758 139.394 381.608 139.394 381.45V381.383C139.394 381.227 139.374 381.079 139.335 380.94C139.298 380.8 139.241 380.676 139.165 380.568C139.091 380.459 138.997 380.373 138.884 380.311C138.772 380.248 138.642 380.217 138.491 380.217C138.343 380.217 138.212 380.248 138.099 380.311C137.987 380.373 137.894 380.459 137.817 380.568C137.743 380.676 137.688 380.8 137.65 380.94C137.613 381.079 137.595 381.227 137.595 381.383ZM141.157 380.46V383H140.612V379.83H141.128L141.157 380.46ZM141.046 381.295L140.794 381.286C140.796 381.069 140.824 380.869 140.879 380.686C140.934 380.5 141.015 380.339 141.122 380.202C141.229 380.065 141.363 379.96 141.523 379.886C141.684 379.81 141.869 379.771 142.08 379.771C142.229 379.771 142.365 379.793 142.49 379.836C142.615 379.877 142.724 379.942 142.815 380.032C142.907 380.122 142.979 380.237 143.029 380.378C143.08 380.519 143.105 380.688 143.105 380.888V383H142.563V380.914C142.563 380.748 142.535 380.615 142.479 380.516C142.424 380.416 142.346 380.344 142.244 380.299C142.143 380.252 142.023 380.229 141.887 380.229C141.727 380.229 141.593 380.257 141.485 380.313C141.378 380.37 141.292 380.448 141.228 380.548C141.163 380.647 141.116 380.762 141.087 380.891C141.06 381.018 141.046 381.152 141.046 381.295ZM143.1 380.996L142.736 381.107C142.738 380.934 142.767 380.767 142.821 380.606C142.878 380.446 142.959 380.304 143.064 380.179C143.172 380.054 143.304 379.955 143.46 379.883C143.616 379.809 143.795 379.771 143.996 379.771C144.166 379.771 144.316 379.794 144.447 379.839C144.58 379.884 144.691 379.953 144.781 380.047C144.873 380.139 144.942 380.257 144.989 380.401C145.036 380.546 145.06 380.718 145.06 380.917V383H144.515V380.911C144.515 380.733 144.486 380.596 144.43 380.498C144.375 380.398 144.297 380.329 144.195 380.29C144.096 380.249 143.977 380.229 143.838 380.229C143.719 380.229 143.613 380.249 143.521 380.29C143.43 380.331 143.353 380.388 143.29 380.46C143.228 380.53 143.18 380.611 143.146 380.703C143.115 380.795 143.1 380.893 143.1 380.996ZM147.195 383.059C146.975 383.059 146.774 383.021 146.595 382.947C146.417 382.871 146.264 382.765 146.135 382.628C146.008 382.491 145.91 382.329 145.842 382.142C145.773 381.954 145.739 381.749 145.739 381.526V381.403C145.739 381.146 145.777 380.916 145.854 380.715C145.93 380.512 146.033 380.34 146.164 380.199C146.295 380.059 146.443 379.952 146.609 379.88C146.775 379.808 146.947 379.771 147.125 379.771C147.352 379.771 147.547 379.811 147.711 379.889C147.877 379.967 148.013 380.076 148.118 380.217C148.224 380.355 148.302 380.52 148.353 380.709C148.403 380.896 148.429 381.102 148.429 381.324V381.567H146.062V381.125H147.887V381.084C147.879 380.943 147.85 380.807 147.799 380.674C147.75 380.541 147.672 380.432 147.564 380.346C147.457 380.26 147.311 380.217 147.125 380.217C147.002 380.217 146.889 380.243 146.785 380.296C146.682 380.347 146.593 380.423 146.519 380.524C146.444 380.626 146.387 380.75 146.346 380.896C146.305 381.043 146.284 381.212 146.284 381.403V381.526C146.284 381.677 146.305 381.818 146.346 381.951C146.389 382.082 146.45 382.197 146.53 382.297C146.612 382.396 146.711 382.475 146.826 382.531C146.943 382.588 147.076 382.616 147.225 382.616C147.416 382.616 147.578 382.577 147.711 382.499C147.844 382.421 147.96 382.316 148.06 382.186L148.388 382.446C148.319 382.55 148.232 382.648 148.127 382.742C148.021 382.836 147.892 382.912 147.737 382.971C147.585 383.029 147.404 383.059 147.195 383.059Z" fill="white"/>
<g clip-path="url(#clip2_2509_51753)">
<path fill-rule="evenodd" clip-rule="evenodd" d="M176.371 364.407C175.414 364.96 175.086 366.183 175.639 367.14C175.926 367.637 176.394 367.964 176.912 368.086C177.045 368.118 177.146 368.227 177.165 368.362C177.185 368.497 177.121 368.631 177.002 368.699L176.204 369.16C175.247 369.713 174.92 370.936 175.472 371.892C176.024 372.849 177.247 373.177 178.204 372.624L183.4 369.624C184.357 369.072 184.684 367.849 184.132 366.892C183.845 366.395 183.377 366.068 182.859 365.946C182.726 365.914 182.625 365.805 182.605 365.67C182.586 365.534 182.65 365.401 182.769 365.332L183.567 364.872C184.523 364.319 184.851 363.096 184.299 362.14C183.747 361.183 182.523 360.855 181.567 361.407L176.371 364.407ZM175.061 367.473C174.325 366.197 174.762 364.567 176.037 363.83L181.233 360.83C182.509 360.094 184.14 360.531 184.876 361.806C185.613 363.082 185.176 364.713 183.9 365.449L183.701 365.564C184.107 365.791 184.46 366.127 184.71 366.559C185.446 367.834 185.009 369.465 183.733 370.202L178.537 373.202C177.262 373.938 175.631 373.501 174.895 372.226C174.158 370.95 174.595 369.319 175.871 368.583L176.07 368.468C175.663 368.241 175.311 367.905 175.061 367.473Z" fill="white"/>
<path d="M182 367L179 368.732L179 365.268L182 367Z" fill="white"/>
</g>
<path d="M173.769 381.922C173.769 381.822 173.753 381.734 173.722 381.658C173.692 381.58 173.64 381.51 173.563 381.447C173.489 381.385 173.386 381.325 173.253 381.269C173.122 381.212 172.956 381.154 172.755 381.096C172.544 381.033 172.354 380.964 172.184 380.888C172.014 380.81 171.868 380.721 171.747 380.621C171.626 380.521 171.533 380.407 171.469 380.278C171.404 380.149 171.372 380.002 171.372 379.836C171.372 379.67 171.406 379.517 171.475 379.376C171.543 379.235 171.641 379.113 171.768 379.01C171.896 378.904 172.05 378.822 172.228 378.764C172.405 378.705 172.604 378.676 172.822 378.676C173.143 378.676 173.414 378.737 173.637 378.86C173.861 378.981 174.032 379.141 174.149 379.338C174.267 379.533 174.325 379.742 174.325 379.965H173.763C173.763 379.805 173.729 379.663 173.66 379.54C173.592 379.415 173.488 379.317 173.35 379.247C173.211 379.175 173.035 379.139 172.822 379.139C172.621 379.139 172.455 379.169 172.324 379.229C172.193 379.29 172.096 379.372 172.031 379.476C171.969 379.579 171.938 379.697 171.938 379.83C171.938 379.92 171.956 380.002 171.993 380.076C172.032 380.148 172.092 380.216 172.172 380.278C172.254 380.341 172.357 380.398 172.482 380.451C172.609 380.504 172.761 380.555 172.937 380.604C173.179 380.672 173.388 380.748 173.563 380.832C173.739 380.916 173.884 381.011 173.997 381.116C174.112 381.22 174.197 381.338 174.252 381.471C174.309 381.602 174.337 381.75 174.337 381.916C174.337 382.09 174.302 382.247 174.231 382.388C174.161 382.528 174.061 382.648 173.93 382.748C173.799 382.848 173.642 382.925 173.458 382.979C173.276 383.032 173.073 383.059 172.849 383.059C172.651 383.059 172.457 383.031 172.266 382.977C172.076 382.922 171.903 382.84 171.747 382.73C171.593 382.621 171.469 382.486 171.375 382.326C171.283 382.164 171.237 381.977 171.237 381.764H171.8C171.8 381.91 171.828 382.036 171.885 382.142C171.941 382.245 172.019 382.331 172.116 382.399C172.216 382.468 172.328 382.519 172.453 382.552C172.58 382.583 172.712 382.599 172.849 382.599C173.046 382.599 173.213 382.571 173.35 382.517C173.486 382.462 173.59 382.384 173.66 382.282C173.732 382.181 173.769 382.061 173.769 381.922ZM175.518 378.5V383H174.976V378.5H175.518ZM175.389 381.295L175.163 381.286C175.165 381.069 175.197 380.869 175.26 380.686C175.322 380.5 175.41 380.339 175.523 380.202C175.637 380.065 175.771 379.96 175.928 379.886C176.086 379.81 176.261 379.771 176.452 379.771C176.608 379.771 176.749 379.793 176.874 379.836C176.999 379.877 177.105 379.943 177.193 380.035C177.283 380.127 177.352 380.246 177.398 380.393C177.445 380.537 177.469 380.714 177.469 380.923V383H176.924V380.917C176.924 380.751 176.899 380.618 176.851 380.519C176.802 380.417 176.73 380.344 176.637 380.299C176.543 380.252 176.428 380.229 176.291 380.229C176.156 380.229 176.033 380.257 175.922 380.313C175.812 380.37 175.718 380.448 175.638 380.548C175.56 380.647 175.498 380.762 175.453 380.891C175.41 381.018 175.389 381.152 175.389 381.295ZM178.137 381.45V381.383C178.137 381.154 178.17 380.942 178.236 380.747C178.303 380.55 178.398 380.379 178.523 380.234C178.648 380.088 178.8 379.975 178.978 379.895C179.155 379.812 179.354 379.771 179.575 379.771C179.798 379.771 179.998 379.812 180.176 379.895C180.355 379.975 180.508 380.088 180.633 380.234C180.76 380.379 180.856 380.55 180.923 380.747C180.989 380.942 181.022 381.154 181.022 381.383V381.45C181.022 381.679 180.989 381.891 180.923 382.086C180.856 382.281 180.76 382.452 180.633 382.599C180.508 382.743 180.356 382.856 180.179 382.938C180.003 383.019 179.804 383.059 179.581 383.059C179.358 383.059 179.158 383.019 178.98 382.938C178.803 382.856 178.65 382.743 178.523 382.599C178.398 382.452 178.303 382.281 178.236 382.086C178.17 381.891 178.137 381.679 178.137 381.45ZM178.679 381.383V381.45C178.679 381.608 178.697 381.758 178.734 381.898C178.771 382.037 178.827 382.16 178.901 382.268C178.978 382.375 179.072 382.46 179.186 382.522C179.299 382.583 179.431 382.613 179.581 382.613C179.729 382.613 179.859 382.583 179.971 382.522C180.084 382.46 180.178 382.375 180.252 382.268C180.326 382.16 180.382 382.037 180.419 381.898C180.458 381.758 180.478 381.608 180.478 381.45V381.383C180.478 381.227 180.458 381.079 180.419 380.94C180.382 380.8 180.325 380.676 180.249 380.568C180.175 380.459 180.081 380.373 179.968 380.311C179.856 380.248 179.726 380.217 179.575 380.217C179.427 380.217 179.296 380.248 179.183 380.311C179.071 380.373 178.978 380.459 178.901 380.568C178.827 380.676 178.771 380.8 178.734 380.94C178.697 381.079 178.679 381.227 178.679 381.383ZM182.244 380.328V383H181.702V379.83H182.229L182.244 380.328ZM183.234 379.812L183.231 380.316C183.187 380.307 183.144 380.301 183.103 380.299C183.063 380.295 183.019 380.293 182.968 380.293C182.843 380.293 182.732 380.312 182.637 380.352C182.541 380.391 182.46 380.445 182.394 380.516C182.327 380.586 182.274 380.67 182.235 380.768C182.198 380.863 182.174 380.969 182.162 381.084L182.01 381.172C182.01 380.98 182.028 380.801 182.065 380.633C182.104 380.465 182.164 380.316 182.244 380.188C182.324 380.057 182.426 379.955 182.549 379.883C182.674 379.809 182.822 379.771 182.994 379.771C183.033 379.771 183.078 379.776 183.129 379.786C183.18 379.794 183.215 379.803 183.234 379.812ZM185.209 379.83V380.246H183.495V379.83H185.209ZM184.075 379.06H184.617V382.215C184.617 382.322 184.634 382.403 184.667 382.458C184.7 382.513 184.743 382.549 184.796 382.566C184.849 382.584 184.905 382.593 184.966 382.593C185.011 382.593 185.058 382.589 185.106 382.581C185.157 382.571 185.195 382.563 185.221 382.558L185.224 383C185.181 383.014 185.124 383.026 185.054 383.038C184.985 383.052 184.902 383.059 184.805 383.059C184.672 383.059 184.55 383.032 184.438 382.979C184.327 382.927 184.238 382.839 184.172 382.716C184.107 382.591 184.075 382.423 184.075 382.212V379.06ZM187.69 382.159C187.69 382.081 187.673 382.009 187.638 381.942C187.604 381.874 187.535 381.812 187.43 381.758C187.326 381.701 187.17 381.652 186.961 381.611C186.785 381.574 186.626 381.53 186.483 381.479C186.343 381.429 186.223 381.367 186.123 381.295C186.025 381.223 185.95 381.138 185.897 381.04C185.845 380.942 185.818 380.828 185.818 380.697C185.818 380.572 185.846 380.454 185.9 380.343C185.957 380.231 186.036 380.133 186.138 380.047C186.241 379.961 186.365 379.894 186.51 379.845C186.654 379.796 186.815 379.771 186.993 379.771C187.247 379.771 187.464 379.816 187.644 379.906C187.823 379.996 187.961 380.116 188.057 380.267C188.152 380.415 188.2 380.58 188.2 380.762H187.658C187.658 380.674 187.632 380.589 187.579 380.507C187.528 380.423 187.453 380.354 187.354 380.299C187.256 380.244 187.136 380.217 186.993 380.217C186.843 380.217 186.721 380.24 186.627 380.287C186.535 380.332 186.468 380.39 186.425 380.46C186.384 380.53 186.363 380.604 186.363 380.683C186.363 380.741 186.373 380.794 186.393 380.841C186.414 380.886 186.451 380.928 186.504 380.967C186.557 381.004 186.631 381.039 186.727 381.072C186.822 381.105 186.944 381.139 187.093 381.172C187.353 381.23 187.566 381.301 187.734 381.383C187.902 381.465 188.027 381.565 188.109 381.685C188.191 381.804 188.232 381.948 188.232 382.118C188.232 382.257 188.203 382.384 188.145 382.499C188.088 382.614 188.005 382.714 187.896 382.798C187.788 382.88 187.659 382.944 187.509 382.991C187.36 383.036 187.193 383.059 187.008 383.059C186.729 383.059 186.492 383.009 186.299 382.909C186.105 382.81 185.959 382.681 185.859 382.522C185.76 382.364 185.71 382.197 185.71 382.021H186.255C186.263 382.17 186.306 382.288 186.384 382.376C186.462 382.462 186.558 382.523 186.671 382.561C186.784 382.596 186.896 382.613 187.008 382.613C187.156 382.613 187.28 382.594 187.38 382.555C187.481 382.516 187.559 382.462 187.611 382.394C187.664 382.325 187.69 382.247 187.69 382.159Z" fill="white"/>
<path d="M224.916 374C224.916 378.351 221.572 381.834 217.5 381.834C213.427 381.834 210.083 378.351 210.083 374C210.083 369.65 213.427 366.167 217.5 366.167C221.572 366.167 224.916 369.65 224.916 374Z" stroke="white"/>
<path d="M213.146 373.375H221.854V374.625H213.146V373.375Z" fill="white"/>
<path d="M218.094 369.417L218.094 378.584L216.906 378.584L216.906 369.417L218.094 369.417Z" fill="white"/>
<path d="M258.771 368.625L255.583 370.466L255.583 366.785L258.771 368.625Z" fill="white"/>
<path fill-rule="evenodd" clip-rule="evenodd" d="M249.917 364.375H264.084V372.875H249.917V364.375ZM250.625 365.083V372.167H263.375V365.083H250.625Z" fill="white"/>
<path d="M251.333 362.25H262.666V362.958H251.333V362.25Z" fill="white"/>
<path d="M253.458 360.125H260.541V360.833H253.458V360.125Z" fill="white"/>
<path d="M241.269 381.922C241.269 381.822 241.253 381.734 241.222 381.658C241.192 381.58 241.14 381.51 241.063 381.447C240.989 381.385 240.886 381.325 240.753 381.269C240.622 381.212 240.456 381.154 240.255 381.096C240.044 381.033 239.854 380.964 239.684 380.888C239.514 380.81 239.368 380.721 239.247 380.621C239.126 380.521 239.033 380.407 238.969 380.278C238.904 380.149 238.872 380.002 238.872 379.836C238.872 379.67 238.906 379.517 238.975 379.376C239.043 379.235 239.141 379.113 239.268 379.01C239.396 378.904 239.55 378.822 239.728 378.764C239.905 378.705 240.104 378.676 240.322 378.676C240.643 378.676 240.914 378.737 241.137 378.86C241.361 378.981 241.532 379.141 241.649 379.338C241.767 379.533 241.825 379.742 241.825 379.965H241.263C241.263 379.805 241.229 379.663 241.16 379.54C241.092 379.415 240.988 379.317 240.85 379.247C240.711 379.175 240.535 379.139 240.322 379.139C240.121 379.139 239.955 379.169 239.824 379.229C239.693 379.29 239.596 379.372 239.531 379.476C239.469 379.579 239.438 379.697 239.438 379.83C239.438 379.92 239.456 380.002 239.493 380.076C239.532 380.148 239.592 380.216 239.672 380.278C239.754 380.341 239.857 380.398 239.982 380.451C240.109 380.504 240.261 380.555 240.437 380.604C240.679 380.672 240.888 380.748 241.063 380.832C241.239 380.916 241.384 381.011 241.497 381.116C241.612 381.22 241.697 381.338 241.752 381.471C241.809 381.602 241.837 381.75 241.837 381.916C241.837 382.09 241.802 382.247 241.731 382.388C241.661 382.528 241.561 382.648 241.43 382.748C241.299 382.848 241.142 382.925 240.958 382.979C240.776 383.032 240.573 383.059 240.349 383.059C240.151 383.059 239.957 383.031 239.766 382.977C239.576 382.922 239.403 382.84 239.247 382.73C239.093 382.621 238.969 382.486 238.875 382.326C238.783 382.164 238.737 381.977 238.737 381.764H239.3C239.3 381.91 239.328 382.036 239.385 382.142C239.441 382.245 239.519 382.331 239.616 382.399C239.716 382.468 239.828 382.519 239.953 382.552C240.08 382.583 240.212 382.599 240.349 382.599C240.546 382.599 240.713 382.571 240.85 382.517C240.986 382.462 241.09 382.384 241.16 382.282C241.232 382.181 241.269 382.061 241.269 381.922ZM244.415 382.268V379.83H244.96V383H244.441L244.415 382.268ZM244.518 381.6L244.743 381.594C244.743 381.805 244.721 382 244.676 382.18C244.633 382.357 244.562 382.512 244.465 382.643C244.367 382.773 244.239 382.876 244.081 382.95C243.923 383.022 243.73 383.059 243.504 383.059C243.35 383.059 243.208 383.036 243.079 382.991C242.952 382.946 242.843 382.877 242.751 382.783C242.659 382.689 242.588 382.567 242.537 382.417C242.488 382.267 242.464 382.086 242.464 381.875V379.83H243.006V381.881C243.006 382.023 243.021 382.142 243.053 382.235C243.086 382.327 243.13 382.4 243.185 382.455C243.241 382.508 243.304 382.545 243.372 382.566C243.442 382.588 243.515 382.599 243.589 382.599C243.819 382.599 244.002 382.555 244.137 382.467C244.271 382.377 244.368 382.257 244.427 382.106C244.487 381.954 244.518 381.785 244.518 381.6ZM245.783 378.5H246.328V382.385L246.281 383H245.783V378.5ZM248.47 381.389V381.45C248.47 381.681 248.442 381.895 248.388 382.092C248.333 382.287 248.253 382.457 248.147 382.602C248.042 382.746 247.913 382.858 247.761 382.938C247.608 383.019 247.434 383.059 247.236 383.059C247.035 383.059 246.858 383.024 246.706 382.956C246.556 382.886 246.429 382.785 246.325 382.654C246.222 382.523 246.139 382.365 246.076 382.18C246.016 381.994 245.974 381.785 245.95 381.553V381.283C245.974 381.049 246.016 380.839 246.076 380.653C246.139 380.468 246.222 380.31 246.325 380.179C246.429 380.046 246.556 379.945 246.706 379.877C246.856 379.807 247.031 379.771 247.23 379.771C247.43 379.771 247.606 379.811 247.761 379.889C247.915 379.965 248.044 380.074 248.147 380.217C248.253 380.359 248.333 380.53 248.388 380.729C248.442 380.927 248.47 381.146 248.47 381.389ZM247.925 381.45V381.389C247.925 381.23 247.91 381.082 247.881 380.943C247.852 380.803 247.805 380.68 247.74 380.574C247.676 380.467 247.591 380.383 247.485 380.322C247.38 380.26 247.25 380.229 247.096 380.229C246.959 380.229 246.84 380.252 246.738 380.299C246.639 380.346 246.554 380.409 246.483 380.489C246.413 380.567 246.355 380.657 246.311 380.759C246.268 380.858 246.235 380.962 246.214 381.069V381.775C246.245 381.912 246.296 382.044 246.366 382.171C246.438 382.296 246.534 382.398 246.653 382.479C246.774 382.559 246.924 382.599 247.102 382.599C247.248 382.599 247.373 382.569 247.477 382.511C247.582 382.45 247.667 382.367 247.731 382.262C247.798 382.156 247.847 382.034 247.878 381.896C247.909 381.757 247.925 381.608 247.925 381.45ZM251.001 382.159C251.001 382.081 250.983 382.009 250.948 381.942C250.915 381.874 250.846 381.812 250.74 381.758C250.637 381.701 250.48 381.652 250.271 381.611C250.096 381.574 249.937 381.53 249.794 381.479C249.653 381.429 249.533 381.367 249.434 381.295C249.336 381.223 249.261 381.138 249.208 381.04C249.155 380.942 249.129 380.828 249.129 380.697C249.129 380.572 249.156 380.454 249.211 380.343C249.268 380.231 249.347 380.133 249.448 380.047C249.552 379.961 249.676 379.894 249.82 379.845C249.965 379.796 250.126 379.771 250.304 379.771C250.558 379.771 250.774 379.816 250.954 379.906C251.134 379.996 251.271 380.116 251.367 380.267C251.463 380.415 251.511 380.58 251.511 380.762H250.969C250.969 380.674 250.942 380.589 250.89 380.507C250.839 380.423 250.764 380.354 250.664 380.299C250.566 380.244 250.446 380.217 250.304 380.217C250.153 380.217 250.031 380.24 249.938 380.287C249.846 380.332 249.778 380.39 249.735 380.46C249.694 380.53 249.674 380.604 249.674 380.683C249.674 380.741 249.684 380.794 249.703 380.841C249.725 380.886 249.762 380.928 249.814 380.967C249.867 381.004 249.941 381.039 250.037 381.072C250.133 381.105 250.255 381.139 250.403 381.172C250.663 381.23 250.877 381.301 251.045 381.383C251.213 381.465 251.338 381.565 251.42 381.685C251.502 381.804 251.543 381.948 251.543 382.118C251.543 382.257 251.514 382.384 251.455 382.499C251.398 382.614 251.315 382.714 251.206 382.798C251.099 382.88 250.97 382.944 250.819 382.991C250.671 383.036 250.504 383.059 250.318 383.059C250.039 383.059 249.803 383.009 249.609 382.909C249.416 382.81 249.27 382.681 249.17 382.522C249.07 382.364 249.021 382.197 249.021 382.021H249.565C249.573 382.17 249.616 382.288 249.694 382.376C249.772 382.462 249.868 382.523 249.981 382.561C250.095 382.596 250.207 382.613 250.318 382.613C250.467 382.613 250.591 382.594 250.69 382.555C250.792 382.516 250.869 382.462 250.922 382.394C250.975 382.325 251.001 382.247 251.001 382.159ZM253.523 382.613C253.652 382.613 253.771 382.587 253.881 382.534C253.99 382.481 254.08 382.409 254.15 382.317C254.221 382.224 254.261 382.117 254.271 381.998H254.786C254.776 382.186 254.713 382.36 254.596 382.522C254.48 382.683 254.329 382.812 254.142 382.912C253.954 383.01 253.748 383.059 253.523 383.059C253.285 383.059 253.077 383.017 252.899 382.933C252.724 382.849 252.577 382.733 252.46 382.587C252.345 382.44 252.258 382.272 252.199 382.083C252.143 381.892 252.114 381.689 252.114 381.477V381.354C252.114 381.141 252.143 380.939 252.199 380.75C252.258 380.559 252.345 380.39 252.46 380.243C252.577 380.097 252.724 379.981 252.899 379.897C253.077 379.813 253.285 379.771 253.523 379.771C253.771 379.771 253.988 379.822 254.174 379.924C254.359 380.023 254.505 380.16 254.61 380.334C254.718 380.506 254.776 380.701 254.786 380.92H254.271C254.261 380.789 254.224 380.671 254.159 380.565C254.097 380.46 254.011 380.376 253.901 380.313C253.794 380.249 253.668 380.217 253.523 380.217C253.357 380.217 253.218 380.25 253.104 380.316C252.993 380.381 252.904 380.469 252.838 380.58C252.773 380.689 252.727 380.812 252.697 380.946C252.67 381.079 252.656 381.215 252.656 381.354V381.477C252.656 381.615 252.67 381.752 252.697 381.887C252.725 382.021 252.771 382.144 252.835 382.253C252.901 382.362 252.99 382.45 253.102 382.517C253.215 382.581 253.355 382.613 253.523 382.613ZM255.938 380.328V383H255.396V379.83H255.923L255.938 380.328ZM256.928 379.812L256.925 380.316C256.88 380.307 256.837 380.301 256.796 380.299C256.757 380.295 256.712 380.293 256.661 380.293C256.536 380.293 256.426 380.312 256.33 380.352C256.234 380.391 256.153 380.445 256.087 380.516C256.021 380.586 255.968 380.67 255.929 380.768C255.892 380.863 255.867 380.969 255.855 381.084L255.703 381.172C255.703 380.98 255.722 380.801 255.759 380.633C255.798 380.465 255.857 380.316 255.938 380.188C256.018 380.057 256.119 379.955 256.242 379.883C256.367 379.809 256.516 379.771 256.688 379.771C256.727 379.771 256.771 379.776 256.822 379.786C256.873 379.794 256.908 379.803 256.928 379.812ZM258.018 379.83V383H257.473V379.83H258.018ZM257.432 378.989C257.432 378.901 257.458 378.827 257.511 378.767C257.565 378.706 257.646 378.676 257.751 378.676C257.854 378.676 257.934 378.706 257.988 378.767C258.045 378.827 258.073 378.901 258.073 378.989C258.073 379.073 258.045 379.146 257.988 379.206C257.934 379.265 257.854 379.294 257.751 379.294C257.646 379.294 257.565 379.265 257.511 379.206C257.458 379.146 257.432 379.073 257.432 378.989ZM259.43 380.439V384.219H258.885V379.83H259.383L259.43 380.439ZM261.565 381.389V381.45C261.565 381.681 261.538 381.895 261.483 382.092C261.429 382.287 261.349 382.457 261.243 382.602C261.14 382.746 261.012 382.858 260.859 382.938C260.707 383.019 260.532 383.059 260.335 383.059C260.134 383.059 259.956 383.025 259.802 382.959C259.647 382.893 259.517 382.796 259.409 382.669C259.302 382.542 259.216 382.39 259.151 382.212C259.089 382.034 259.046 381.834 259.022 381.611V381.283C259.046 381.049 259.09 380.839 259.154 380.653C259.219 380.468 259.304 380.31 259.409 380.179C259.517 380.046 259.646 379.945 259.799 379.877C259.951 379.807 260.127 379.771 260.326 379.771C260.525 379.771 260.702 379.811 260.856 379.889C261.011 379.965 261.141 380.074 261.246 380.217C261.352 380.359 261.431 380.53 261.483 380.729C261.538 380.927 261.565 381.146 261.565 381.389ZM261.021 381.45V381.389C261.021 381.23 261.004 381.082 260.971 380.943C260.938 380.803 260.886 380.68 260.815 380.574C260.747 380.467 260.659 380.383 260.552 380.322C260.444 380.26 260.316 380.229 260.168 380.229C260.031 380.229 259.912 380.252 259.811 380.299C259.711 380.346 259.626 380.409 259.556 380.489C259.485 380.567 259.428 380.657 259.383 380.759C259.34 380.858 259.308 380.962 259.286 381.069V381.828C259.325 381.965 259.38 382.094 259.45 382.215C259.521 382.334 259.614 382.431 259.731 382.505C259.849 382.577 259.996 382.613 260.174 382.613C260.32 382.613 260.446 382.583 260.552 382.522C260.659 382.46 260.747 382.375 260.815 382.268C260.886 382.16 260.938 382.037 260.971 381.898C261.004 381.758 261.021 381.608 261.021 381.45ZM263.584 379.83V380.246H261.87V379.83H263.584ZM262.45 379.06H262.992V382.215C262.992 382.322 263.009 382.403 263.042 382.458C263.075 382.513 263.118 382.549 263.171 382.566C263.224 382.584 263.28 382.593 263.341 382.593C263.386 382.593 263.433 382.589 263.481 382.581C263.532 382.571 263.57 382.563 263.596 382.558L263.599 383C263.556 383.014 263.499 383.026 263.429 383.038C263.36 383.052 263.277 383.059 263.18 383.059C263.047 383.059 262.925 383.032 262.813 382.979C262.702 382.927 262.613 382.839 262.547 382.716C262.482 382.591 262.45 382.423 262.45 382.212V379.06ZM264.809 379.83V383H264.264V379.83H264.809ZM264.223 378.989C264.223 378.901 264.249 378.827 264.302 378.767C264.356 378.706 264.437 378.676 264.542 378.676C264.646 378.676 264.725 378.706 264.779 378.767C264.836 378.827 264.864 378.901 264.864 378.989C264.864 379.073 264.836 379.146 264.779 379.206C264.725 379.265 264.646 379.294 264.542 379.294C264.437 379.294 264.356 379.265 264.302 379.206C264.249 379.146 264.223 379.073 264.223 378.989ZM265.535 381.45V381.383C265.535 381.154 265.568 380.942 265.635 380.747C265.701 380.55 265.797 380.379 265.922 380.234C266.047 380.088 266.198 379.975 266.376 379.895C266.554 379.812 266.753 379.771 266.974 379.771C267.196 379.771 267.396 379.812 267.574 379.895C267.754 379.975 267.906 380.088 268.031 380.234C268.158 380.379 268.255 380.55 268.321 380.747C268.388 380.942 268.421 381.154 268.421 381.383V381.45C268.421 381.679 268.388 381.891 268.321 382.086C268.255 382.281 268.158 382.452 268.031 382.599C267.906 382.743 267.755 382.856 267.577 382.938C267.401 383.019 267.202 383.059 266.979 383.059C266.757 383.059 266.557 383.019 266.379 382.938C266.201 382.856 266.049 382.743 265.922 382.599C265.797 382.452 265.701 382.281 265.635 382.086C265.568 381.891 265.535 381.679 265.535 381.45ZM266.077 381.383V381.45C266.077 381.608 266.096 381.758 266.133 381.898C266.17 382.037 266.226 382.16 266.3 382.268C266.376 382.375 266.471 382.46 266.584 382.522C266.697 382.583 266.829 382.613 266.979 382.613C267.128 382.613 267.258 382.583 267.369 382.522C267.482 382.46 267.576 382.375 267.65 382.268C267.725 382.16 267.78 382.037 267.817 381.898C267.856 381.758 267.876 381.608 267.876 381.45V381.383C267.876 381.227 267.856 381.079 267.817 380.94C267.78 380.8 267.724 380.676 267.647 380.568C267.573 380.459 267.479 380.373 267.366 380.311C267.255 380.248 267.124 380.217 266.974 380.217C266.825 380.217 266.694 380.248 266.581 380.311C266.47 380.373 266.376 380.459 266.3 380.568C266.226 380.676 266.17 380.8 266.133 380.94C266.096 381.079 266.077 381.227 266.077 381.383ZM269.643 380.507V383H269.101V379.83H269.613L269.643 380.507ZM269.514 381.295L269.288 381.286C269.29 381.069 269.322 380.869 269.385 380.686C269.447 380.5 269.535 380.339 269.648 380.202C269.762 380.065 269.896 379.96 270.053 379.886C270.211 379.81 270.386 379.771 270.577 379.771C270.733 379.771 270.874 379.793 270.999 379.836C271.124 379.877 271.23 379.943 271.318 380.035C271.408 380.127 271.477 380.246 271.523 380.393C271.57 380.537 271.594 380.714 271.594 380.923V383H271.049V380.917C271.049 380.751 271.024 380.618 270.976 380.519C270.927 380.417 270.855 380.344 270.762 380.299C270.668 380.252 270.553 380.229 270.416 380.229C270.281 380.229 270.158 380.257 270.047 380.313C269.938 380.37 269.843 380.448 269.763 380.548C269.685 380.647 269.623 380.762 269.578 380.891C269.535 381.018 269.514 381.152 269.514 381.295ZM274.263 382.159C274.263 382.081 274.245 382.009 274.21 381.942C274.177 381.874 274.107 381.812 274.002 381.758C273.898 381.701 273.742 381.652 273.533 381.611C273.357 381.574 273.198 381.53 273.056 381.479C272.915 381.429 272.795 381.367 272.695 381.295C272.598 381.223 272.522 381.138 272.47 381.04C272.417 380.942 272.391 380.828 272.391 380.697C272.391 380.572 272.418 380.454 272.473 380.343C272.529 380.231 272.608 380.133 272.71 380.047C272.813 379.961 272.938 379.894 273.082 379.845C273.227 379.796 273.388 379.771 273.565 379.771C273.819 379.771 274.036 379.816 274.216 379.906C274.396 379.996 274.533 380.116 274.629 380.267C274.725 380.415 274.772 380.58 274.772 380.762H274.23C274.23 380.674 274.204 380.589 274.151 380.507C274.101 380.423 274.025 380.354 273.926 380.299C273.828 380.244 273.708 380.217 273.565 380.217C273.415 380.217 273.293 380.24 273.199 380.287C273.107 380.332 273.04 380.39 272.997 380.46C272.956 380.53 272.936 380.604 272.936 380.683C272.936 380.741 272.945 380.794 272.965 380.841C272.986 380.886 273.023 380.928 273.076 380.967C273.129 381.004 273.203 381.039 273.299 381.072C273.395 381.105 273.517 381.139 273.665 381.172C273.925 381.23 274.139 381.301 274.307 381.383C274.475 381.465 274.6 381.565 274.682 381.685C274.764 381.804 274.805 381.948 274.805 382.118C274.805 382.257 274.775 382.384 274.717 382.499C274.66 382.614 274.577 382.714 274.468 382.798C274.36 382.88 274.231 382.944 274.081 382.991C273.933 383.036 273.766 383.059 273.58 383.059C273.301 383.059 273.064 383.009 272.871 382.909C272.678 382.81 272.531 382.681 272.432 382.522C272.332 382.364 272.282 382.197 272.282 382.021H272.827C272.835 382.17 272.878 382.288 272.956 382.376C273.034 382.462 273.13 382.523 273.243 382.561C273.356 382.596 273.469 382.613 273.58 382.613C273.729 382.613 273.853 382.594 273.952 382.555C274.054 382.516 274.131 382.462 274.184 382.394C274.236 382.325 274.263 382.247 274.263 382.159Z" fill="white"/>
<path fill-rule="evenodd" clip-rule="evenodd" d="M296 361H306V371H296V361ZM296.667 361.667V370.333H305.333V361.667H296.667Z" fill="white"/>
<path d="M303.333 366L299.333 368.309L299.333 363.69L303.333 366Z" fill="white"/>
<path fill-rule="evenodd" clip-rule="evenodd" d="M294 363.333H294.667V372.333H303.667V373H294V363.333Z" fill="white"/>
<path d="M293.582 382.54V383H291.449V382.54H293.582ZM291.561 378.734V383H290.995V378.734H291.561ZM294.736 379.83V383H294.191V379.83H294.736ZM294.15 378.989C294.15 378.901 294.177 378.827 294.229 378.767C294.284 378.706 294.364 378.676 294.47 378.676C294.573 378.676 294.652 378.706 294.707 378.767C294.764 378.827 294.792 378.901 294.792 378.989C294.792 379.073 294.764 379.146 294.707 379.206C294.652 379.265 294.573 379.294 294.47 379.294C294.364 379.294 294.284 379.265 294.229 379.206C294.177 379.146 294.15 379.073 294.15 378.989ZM295.604 378.5H296.148V382.385L296.102 383H295.604V378.5ZM298.29 381.389V381.45C298.29 381.681 298.263 381.895 298.208 382.092C298.153 382.287 298.073 382.457 297.968 382.602C297.862 382.746 297.733 382.858 297.581 382.938C297.429 383.019 297.254 383.059 297.057 383.059C296.855 383.059 296.679 383.024 296.526 382.956C296.376 382.886 296.249 382.785 296.146 382.654C296.042 382.523 295.959 382.365 295.896 382.18C295.836 381.994 295.794 381.785 295.771 381.553V381.283C295.794 381.049 295.836 380.839 295.896 380.653C295.959 380.468 296.042 380.31 296.146 380.179C296.249 380.046 296.376 379.945 296.526 379.877C296.677 379.807 296.852 379.771 297.051 379.771C297.25 379.771 297.427 379.811 297.581 379.889C297.735 379.965 297.864 380.074 297.968 380.217C298.073 380.359 298.153 380.53 298.208 380.729C298.263 380.927 298.29 381.146 298.29 381.389ZM297.745 381.45V381.389C297.745 381.23 297.73 381.082 297.701 380.943C297.672 380.803 297.625 380.68 297.561 380.574C297.496 380.467 297.411 380.383 297.306 380.322C297.2 380.26 297.07 380.229 296.916 380.229C296.779 380.229 296.66 380.252 296.559 380.299C296.459 380.346 296.374 380.409 296.304 380.489C296.233 380.567 296.176 380.657 296.131 380.759C296.088 380.858 296.056 380.962 296.034 381.069V381.775C296.065 381.912 296.116 382.044 296.187 382.171C296.259 382.296 296.354 382.398 296.474 382.479C296.595 382.559 296.744 382.599 296.922 382.599C297.068 382.599 297.193 382.569 297.297 382.511C297.402 382.45 297.487 382.367 297.552 382.262C297.618 382.156 297.667 382.034 297.698 381.896C297.729 381.757 297.745 381.608 297.745 381.45ZM299.518 380.328V383H298.976V379.83H299.503L299.518 380.328ZM300.508 379.812L300.505 380.316C300.46 380.307 300.417 380.301 300.376 380.299C300.337 380.295 300.292 380.293 300.241 380.293C300.116 380.293 300.006 380.312 299.91 380.352C299.814 380.391 299.733 380.445 299.667 380.516C299.601 380.586 299.548 380.67 299.509 380.768C299.472 380.863 299.447 380.969 299.436 381.084L299.283 381.172C299.283 380.98 299.302 380.801 299.339 380.633C299.378 380.465 299.438 380.316 299.518 380.188C299.598 380.057 299.699 379.955 299.822 379.883C299.947 379.809 300.096 379.771 300.268 379.771C300.307 379.771 300.352 379.776 300.402 379.786C300.453 379.794 300.488 379.803 300.508 379.812ZM302.761 382.458V380.826C302.761 380.701 302.735 380.593 302.685 380.501C302.636 380.407 302.562 380.335 302.462 380.284C302.362 380.233 302.239 380.208 302.093 380.208C301.956 380.208 301.836 380.231 301.732 380.278C301.631 380.325 301.551 380.387 301.492 380.463C301.436 380.539 301.407 380.621 301.407 380.709H300.865C300.865 380.596 300.895 380.483 300.953 380.372C301.012 380.261 301.096 380.16 301.205 380.07C301.316 379.979 301.449 379.906 301.604 379.854C301.76 379.799 301.934 379.771 302.125 379.771C302.355 379.771 302.559 379.811 302.734 379.889C302.912 379.967 303.051 380.085 303.15 380.243C303.252 380.399 303.303 380.596 303.303 380.832V382.309C303.303 382.414 303.312 382.526 303.329 382.646C303.349 382.765 303.377 382.867 303.414 382.953V383H302.849C302.821 382.938 302.8 382.854 302.784 382.751C302.769 382.646 302.761 382.548 302.761 382.458ZM302.854 381.078L302.86 381.459H302.312C302.158 381.459 302.021 381.472 301.899 381.497C301.778 381.521 301.677 381.557 301.595 381.605C301.513 381.654 301.45 381.716 301.407 381.79C301.364 381.862 301.343 381.947 301.343 382.045C301.343 382.145 301.365 382.235 301.41 382.317C301.455 382.399 301.522 382.465 301.612 382.514C301.704 382.561 301.816 382.584 301.949 382.584C302.115 382.584 302.262 382.549 302.389 382.479C302.516 382.408 302.616 382.322 302.69 382.221C302.767 382.119 302.808 382.021 302.813 381.925L303.045 382.186C303.031 382.268 302.994 382.358 302.934 382.458C302.873 382.558 302.792 382.653 302.69 382.745C302.591 382.835 302.472 382.91 302.333 382.971C302.196 383.029 302.042 383.059 301.87 383.059C301.655 383.059 301.467 383.017 301.305 382.933C301.145 382.849 301.02 382.736 300.93 382.596C300.842 382.453 300.798 382.294 300.798 382.118C300.798 381.948 300.831 381.799 300.897 381.67C300.964 381.539 301.06 381.431 301.185 381.345C301.31 381.257 301.46 381.19 301.636 381.146C301.812 381.101 302.008 381.078 302.225 381.078H302.854ZM304.697 380.328V383H304.155V379.83H304.683L304.697 380.328ZM305.688 379.812L305.685 380.316C305.64 380.307 305.597 380.301 305.556 380.299C305.517 380.295 305.472 380.293 305.421 380.293C305.296 380.293 305.186 380.312 305.09 380.352C304.994 380.391 304.913 380.445 304.847 380.516C304.78 380.586 304.728 380.67 304.688 380.768C304.651 380.863 304.627 380.969 304.615 381.084L304.463 381.172C304.463 380.98 304.481 380.801 304.519 380.633C304.558 380.465 304.617 380.316 304.697 380.188C304.777 380.057 304.879 379.955 305.002 379.883C305.127 379.809 305.275 379.771 305.447 379.771C305.486 379.771 305.531 379.776 305.582 379.786C305.633 379.794 305.668 379.803 305.688 379.812ZM307.132 382.672L308.014 379.83H308.594L307.322 383.489C307.293 383.567 307.254 383.651 307.205 383.741C307.158 383.833 307.098 383.92 307.023 384.002C306.949 384.084 306.859 384.15 306.754 384.201C306.65 384.254 306.526 384.28 306.382 384.28C306.339 384.28 306.284 384.274 306.218 384.263C306.151 384.251 306.104 384.241 306.077 384.233L306.074 383.794C306.09 383.796 306.114 383.798 306.147 383.8C306.183 383.804 306.207 383.806 306.221 383.806C306.344 383.806 306.448 383.789 306.534 383.756C306.62 383.725 306.692 383.671 306.751 383.595C306.812 383.521 306.863 383.418 306.906 383.287L307.132 382.672ZM306.484 379.83L307.308 382.291L307.448 382.862L307.059 383.062L305.893 379.83H306.484Z" fill="white"/>
<g clip-path="url(#clip3_2509_51753)">
<path d="M141.18 25.252V20.5045H141.112L139.671 21.5158V20.5205L141.184 19.461H142.216V25.252H141.18ZM145.751 25.3964C145.154 25.3964 144.664 25.2332 144.282 24.9068C143.899 24.5804 143.696 24.1604 143.672 23.6467H144.643C144.675 23.9116 144.794 24.1256 145 24.2888C145.206 24.452 145.459 24.5336 145.759 24.5336C146.098 24.5336 146.373 24.4293 146.581 24.2206C146.793 24.0092 146.898 23.731 146.898 23.3859C146.898 23.0407 146.793 22.7612 146.581 22.5471C146.373 22.3304 146.101 22.2221 145.767 22.2221C145.531 22.2221 145.321 22.2716 145.137 22.3705C144.955 22.4695 144.81 22.61 144.703 22.7919H143.764L144.065 19.461H147.552V20.3359H144.868L144.727 21.9612H144.795C145.063 21.6 145.471 21.4194 146.019 21.4194C146.568 21.4194 147.017 21.6014 147.368 21.9652C147.721 22.3291 147.898 22.7946 147.898 23.3618C147.898 23.9664 147.7 24.4574 147.304 24.8346C146.91 25.2091 146.393 25.3964 145.751 25.3964ZM149.534 24.6379C149.347 24.6379 149.193 24.5778 149.073 24.4574C148.952 24.337 148.892 24.1858 148.892 24.0039C148.892 23.8193 148.952 23.6681 149.073 23.5504C149.193 23.43 149.347 23.3698 149.534 23.3698C149.724 23.3698 149.878 23.43 149.996 23.5504C150.116 23.6681 150.176 23.8193 150.176 24.0039C150.176 24.1858 150.116 24.337 149.996 24.4574C149.878 24.5778 149.724 24.6379 149.534 24.6379ZM149.534 21.6281C149.347 21.6281 149.193 21.5693 149.073 21.4515C148.952 21.3312 148.892 21.18 148.892 20.9981C148.892 20.8135 148.952 20.6623 149.073 20.5446C149.193 20.4242 149.347 20.364 149.534 20.364C149.724 20.364 149.878 20.4242 149.996 20.5446C150.116 20.6623 150.176 20.8135 150.176 20.9981C150.176 21.18 150.116 21.3312 149.996 21.4515C149.878 21.5693 149.724 21.6281 149.534 21.6281ZM153.98 25.252V24.1724H151.151V23.2494C151.622 22.3826 152.408 21.1198 153.511 19.461H154.972V23.2976H155.754V24.1724H154.972V25.252H153.98ZM152.11 23.2615V23.3217H153.996V20.3038H153.94C153.314 21.2295 152.704 22.2154 152.11 23.2615ZM157.929 25.252V20.5045H157.86L156.42 21.5158V20.5205L157.933 19.461H158.964V25.252H157.929Z" fill="white"/>
<path opacity="0.35" d="M292.428 20.9338C292.428 20.0067 293.18 19.255 294.107 19.255H302.326C303.253 19.255 304.004 20.0067 304.004 20.9338V23.3511C304.004 24.2783 303.253 25.0299 302.326 25.0299H294.107C293.18 25.0299 292.428 24.2783 292.428 23.3511V20.9338Z" stroke="white" stroke-width="0.510093"/>
<path opacity="0.4" d="M304.743 21.417V23.4574C305.154 23.2846 305.421 22.8826 305.421 22.4372C305.421 21.9918 305.154 21.5898 304.743 21.417Z" fill="white"/>
<path d="M293.14 20.9337C293.14 20.3997 293.573 19.9668 294.107 19.9668H302.325C302.859 19.9668 303.292 20.3997 303.292 20.9337V23.351C303.292 23.885 302.859 24.3179 302.325 24.3179H294.107C293.573 24.3179 293.14 23.885 293.14 23.351V20.9337Z" fill="white"/>
<path fill-rule="evenodd" clip-rule="evenodd" d="M284.68 20.7344C285.872 20.7344 287.019 21.2021 287.884 22.0408C287.949 22.1056 288.053 22.1048 288.117 22.039L288.739 21.3981C288.771 21.3648 288.789 21.3196 288.789 21.2726C288.789 21.2256 288.77 21.1806 288.737 21.1476C286.469 18.9287 282.89 18.9287 280.622 21.1476C280.589 21.1806 280.571 21.2255 280.57 21.2725C280.57 21.3195 280.588 21.3647 280.621 21.3981L281.243 22.039C281.307 22.1048 281.411 22.1057 281.476 22.0408C282.34 21.2021 283.487 20.7344 284.68 20.7344ZM284.697 22.7092C285.353 22.7092 285.984 22.9578 286.47 23.4067C286.536 23.4704 286.639 23.469 286.703 23.4036L287.325 22.7627C287.357 22.7291 287.375 22.6835 287.375 22.6361C287.375 22.5887 287.355 22.5435 287.322 22.5106C285.843 21.1063 283.553 21.1063 282.074 22.5106C282.04 22.5435 282.021 22.5887 282.021 22.6361C282.021 22.6835 282.039 22.7291 282.072 22.7627L282.693 23.4036C282.757 23.469 282.86 23.4704 282.926 23.4067C283.411 22.9581 284.043 22.7095 284.697 22.7092ZM285.961 24.0002C285.962 24.0478 285.944 24.0936 285.91 24.1269L284.835 25.2341C284.804 25.2666 284.761 25.285 284.716 25.285C284.671 25.285 284.628 25.2666 284.597 25.2341L283.522 24.1269C283.489 24.0935 283.47 24.0477 283.471 24.0002C283.472 23.9527 283.493 23.9077 283.527 23.8758C284.214 23.2832 285.219 23.2832 285.905 23.8758C285.94 23.9077 285.96 23.9527 285.961 24.0002Z" fill="white"/>
<path d="M272.835 20.9338C272.835 20.6668 273.051 20.4503 273.318 20.4503H273.802C274.069 20.4503 274.285 20.6668 274.285 20.9338V24.8015C274.285 25.0685 274.069 25.2849 273.802 25.2849H273.318C273.051 25.2849 272.835 25.0685 272.835 24.8015V20.9338Z" fill="white"/>
<path d="M275.252 19.9669C275.252 19.6999 275.468 19.4834 275.735 19.4834H276.219C276.486 19.4834 276.702 19.6999 276.702 19.9669V24.8015C276.702 25.0685 276.486 25.2849 276.219 25.2849H275.735C275.468 25.2849 275.252 25.0685 275.252 24.8015V19.9669Z" fill="white"/>
<path d="M270.417 22.6259C270.417 22.3589 270.634 22.1424 270.901 22.1424H271.384C271.651 22.1424 271.868 22.3589 271.868 22.6259V24.8015C271.868 25.0685 271.651 25.2849 271.384 25.2849H270.901C270.634 25.2849 270.417 25.0685 270.417 24.8015V22.6259Z" fill="white"/>
<path d="M268 23.8345C268 23.5675 268.216 23.3511 268.483 23.3511H268.967C269.234 23.3511 269.45 23.5675 269.45 23.8345V24.8015C269.45 25.0685 269.234 25.2849 268.967 25.2849H268.483C268.216 25.2849 268 25.0685 268 24.8015V23.8345Z" fill="white"/>
</g>
</g>
<defs>
<clipPath id="clip0_2509_51753">
<rect x="126" y="10" width="191" height="411" rx="20" fill="white"/>
</clipPath>
<clipPath id="clip1_2509_51753">
<rect width="46" height="10" fill="white" transform="translate(138 40)"/>
</clipPath>
<clipPath id="clip2_2509_51753">
<rect width="16" height="16" fill="white" transform="translate(172 359)"/>
</clipPath>
<clipPath id="clip3_2509_51753">
<rect width="308" height="23" fill="white" transform="translate(64 10)"/>
</clipPath>
</defs>
</svg>
