<svg width="12" height="67" viewBox="0 0 12 67" fill="none" xmlns="http://www.w3.org/2000/svg">
<g filter="url(#filter0_f_2509_50540)">
<path d="M1.02927 29.5095C1.02006 29.5065 1.02006 29.4935 1.02927 29.4905L1.33858 29.39C1.3427 29.3886 1.34549 29.3848 1.34549 29.3805V29.0552C1.34549 29.0456 1.35789 29.0415 1.36358 29.0494L1.55475 29.3125C1.55729 29.316 1.56181 29.3175 1.56593 29.3161L1.87524 29.2156C1.88445 29.2126 1.89211 29.2232 1.88642 29.231L1.69525 29.4941C1.69271 29.4976 1.69271 29.5024 1.69525 29.5059L1.88642 29.769C1.89211 29.7768 1.88445 29.7874 1.87524 29.7844L1.56593 29.6839C1.56181 29.6825 1.55729 29.684 1.55475 29.6875L1.36358 29.9506C1.35789 29.9585 1.34549 29.9544 1.34549 29.9448V29.6195C1.34549 29.6152 1.3427 29.6114 1.33858 29.61L1.02927 29.5095Z" fill="white"/>
</g>
<g filter="url(#filter1_f_2509_50540)">
<path d="M6.02927 27.5095C6.02006 27.5065 6.02006 27.4935 6.02927 27.4905L6.33858 27.39C6.3427 27.3886 6.34549 27.3848 6.34549 27.3805V27.0552C6.34549 27.0456 6.35789 27.0415 6.36358 27.0494L6.55475 27.3125C6.55729 27.316 6.56181 27.3175 6.56593 27.3161L6.87524 27.2156C6.88445 27.2126 6.89211 27.2232 6.88642 27.231L6.69525 27.4941C6.69271 27.4976 6.69271 27.5024 6.69525 27.5059L6.88642 27.769C6.89211 27.7768 6.88445 27.7874 6.87524 27.7844L6.56593 27.6839C6.56181 27.6825 6.55729 27.684 6.55475 27.6875L6.36358 27.9506C6.35789 27.9585 6.34549 27.9544 6.34549 27.9448V27.6195C6.34549 27.6152 6.3427 27.6114 6.33858 27.61L6.02927 27.5095Z" fill="white"/>
</g>
<g filter="url(#filter2_f_2509_50540)">
<path d="M4.02927 22.5095C4.02006 22.5065 4.02006 22.4935 4.02927 22.4905L4.33858 22.39C4.3427 22.3886 4.34549 22.3848 4.34549 22.3805V22.0552C4.34549 22.0456 4.35789 22.0415 4.36358 22.0494L4.55475 22.3125C4.55729 22.316 4.56181 22.3175 4.56593 22.3161L4.87524 22.2156C4.88445 22.2126 4.89211 22.2232 4.88642 22.231L4.69525 22.4941C4.69271 22.4976 4.69271 22.5024 4.69525 22.5059L4.88642 22.769C4.89211 22.7768 4.88445 22.7874 4.87524 22.7844L4.56593 22.6839C4.56181 22.6825 4.55729 22.684 4.55475 22.6875L4.36358 22.9506C4.35789 22.9585 4.34549 22.9544 4.34549 22.9448V22.6195C4.34549 22.6152 4.3427 22.6114 4.33858 22.61L4.02927 22.5095Z" fill="white"/>
</g>
<g filter="url(#filter3_f_2509_50540)">
<path d="M9.02927 25.5095C9.02006 25.5065 9.02006 25.4935 9.02927 25.4905L9.33858 25.39C9.3427 25.3886 9.34549 25.3848 9.34549 25.3805V25.0552C9.34549 25.0456 9.35789 25.0415 9.36358 25.0494L9.55475 25.3125C9.55729 25.316 9.56181 25.3175 9.56593 25.3161L9.87524 25.2156C9.88445 25.2126 9.89211 25.2232 9.88642 25.231L9.69525 25.4941C9.69271 25.4976 9.69271 25.5024 9.69525 25.5059L9.88642 25.769C9.89211 25.7768 9.88445 25.7874 9.87524 25.7844L9.56593 25.6839C9.56181 25.6825 9.55729 25.684 9.55475 25.6875L9.36358 25.9506C9.35789 25.9585 9.34549 25.9544 9.34549 25.9448V25.6195C9.34549 25.6152 9.3427 25.6114 9.33858 25.61L9.02927 25.5095Z" fill="white"/>
</g>
<g filter="url(#filter4_f_2509_50540)">
<path d="M1.02927 43.5095C1.02006 43.5065 1.02006 43.4935 1.02927 43.4905L1.33858 43.39C1.3427 43.3886 1.34549 43.3848 1.34549 43.3805V43.0552C1.34549 43.0456 1.35789 43.0415 1.36358 43.0494L1.55475 43.3125C1.55729 43.316 1.56181 43.3175 1.56593 43.3161L1.87524 43.2156C1.88445 43.2126 1.89211 43.2232 1.88642 43.231L1.69525 43.4941C1.69271 43.4976 1.69271 43.5024 1.69525 43.5059L1.88642 43.769C1.89211 43.7768 1.88445 43.7874 1.87524 43.7844L1.56593 43.6839C1.56181 43.6825 1.55729 43.684 1.55475 43.6875L1.36358 43.9506C1.35789 43.9585 1.34549 43.9544 1.34549 43.9448V43.6195C1.34549 43.6152 1.3427 43.6114 1.33858 43.61L1.02927 43.5095Z" fill="white"/>
</g>
<g filter="url(#filter5_f_2509_50540)">
<path d="M8.02927 33.5095C8.02006 33.5065 8.02006 33.4935 8.02927 33.4905L8.33858 33.39C8.3427 33.3886 8.34549 33.3848 8.34549 33.3805V33.0552C8.34549 33.0456 8.35789 33.0415 8.36358 33.0494L8.55475 33.3125C8.55729 33.316 8.56181 33.3175 8.56593 33.3161L8.87524 33.2156C8.88445 33.2126 8.89211 33.2232 8.88642 33.231L8.69525 33.4941C8.69271 33.4976 8.69271 33.5024 8.69525 33.5059L8.88642 33.769C8.89211 33.7768 8.88445 33.7874 8.87524 33.7844L8.56593 33.6839C8.56181 33.6825 8.55729 33.684 8.55475 33.6875L8.36358 33.9506C8.35789 33.9585 8.34549 33.9544 8.34549 33.9448V33.6195C8.34549 33.6152 8.3427 33.6114 8.33858 33.61L8.02927 33.5095Z" fill="white"/>
</g>
<g filter="url(#filter6_f_2509_50540)">
<path d="M6.02927 49.5095C6.02006 49.5065 6.02006 49.4935 6.02927 49.4905L6.33858 49.39C6.3427 49.3886 6.34549 49.3848 6.34549 49.3805V49.0552C6.34549 49.0456 6.35789 49.0415 6.36358 49.0494L6.55475 49.3125C6.55729 49.316 6.56181 49.3175 6.56593 49.3161L6.87524 49.2156C6.88445 49.2126 6.89211 49.2232 6.88642 49.231L6.69525 49.4941C6.69271 49.4976 6.69271 49.5024 6.69525 49.5059L6.88642 49.769C6.89211 49.7768 6.88445 49.7874 6.87524 49.7844L6.56593 49.6839C6.56181 49.6825 6.55729 49.684 6.55475 49.6875L6.36358 49.9506C6.35789 49.9585 6.34549 49.9544 6.34549 49.9448V49.6195C6.34549 49.6152 6.3427 49.6114 6.33858 49.61L6.02927 49.5095Z" fill="white"/>
</g>
<g filter="url(#filter7_f_2509_50540)">
<path d="M8.02927 65.5095C8.02006 65.5065 8.02006 65.4935 8.02927 65.4905L8.33858 65.39C8.3427 65.3886 8.34549 65.3848 8.34549 65.3805V65.0552C8.34549 65.0456 8.35789 65.0415 8.36358 65.0494L8.55475 65.3125C8.55729 65.316 8.56181 65.3175 8.56593 65.3161L8.87524 65.2156C8.88445 65.2126 8.89211 65.2232 8.88642 65.231L8.69525 65.4941C8.69271 65.4976 8.69271 65.5024 8.69525 65.5059L8.88642 65.769C8.89211 65.7768 8.88445 65.7874 8.87524 65.7844L8.56593 65.6839C8.56181 65.6825 8.55729 65.684 8.55475 65.6875L8.36358 65.9506C8.35789 65.9585 8.34549 65.9544 8.34549 65.9448V65.6195C8.34549 65.6152 8.3427 65.6114 8.33858 65.61L8.02927 65.5095Z" fill="white"/>
</g>
<g filter="url(#filter8_f_2509_50540)">
<path d="M10.0293 3.50951C10.0201 3.50652 10.0201 3.49348 10.0293 3.49049L10.3386 3.38999C10.3427 3.38865 10.3455 3.38481 10.3455 3.38048V3.05525C10.3455 3.04556 10.3579 3.04153 10.3636 3.04937L10.5547 3.31249C10.5573 3.31599 10.5618 3.31746 10.5659 3.31612L10.8752 3.21562C10.8845 3.21262 10.8921 3.22317 10.8864 3.23101L10.6953 3.49412C10.6927 3.49763 10.6927 3.50237 10.6953 3.50588L10.8864 3.76899C10.8921 3.77683 10.8845 3.78738 10.8752 3.78438L10.5659 3.68388C10.5618 3.68254 10.5573 3.68401 10.5547 3.68751L10.3636 3.95063C10.3579 3.95847 10.3455 3.95444 10.3455 3.94475V3.61952C10.3455 3.61519 10.3427 3.61135 10.3386 3.61001L10.0293 3.50951Z" fill="white"/>
</g>
<g filter="url(#filter9_f_2509_50540)">
<path d="M5.02927 1.50951C5.02006 1.50652 5.02006 1.49348 5.02927 1.49049L5.33858 1.38999C5.3427 1.38865 5.34549 1.38481 5.34549 1.38048V1.05525C5.34549 1.04556 5.35789 1.04153 5.36358 1.04937L5.55475 1.31249C5.55729 1.31599 5.56181 1.31746 5.56593 1.31612L5.87524 1.21562C5.88445 1.21262 5.89211 1.22317 5.88642 1.23101L5.69525 1.49412C5.69271 1.49763 5.69271 1.50237 5.69525 1.50588L5.88642 1.76899C5.89211 1.77683 5.88445 1.78738 5.87524 1.78438L5.56593 1.68388C5.56181 1.68254 5.55729 1.68401 5.55475 1.68751L5.36358 1.95063C5.35789 1.95847 5.34549 1.95444 5.34549 1.94475V1.61952C5.34549 1.61519 5.3427 1.61135 5.33858 1.61001L5.02927 1.50951Z" fill="white"/>
</g>
<g filter="url(#filter10_f_2509_50540)">
<path d="M4.02927 35.5095C4.02006 35.5065 4.02006 35.4935 4.02927 35.4905L4.33858 35.39C4.3427 35.3886 4.34549 35.3848 4.34549 35.3805V35.0552C4.34549 35.0456 4.35789 35.0415 4.36358 35.0494L4.55475 35.3125C4.55729 35.316 4.56181 35.3175 4.56593 35.3161L4.87524 35.2156C4.88445 35.2126 4.89211 35.2232 4.88642 35.231L4.69525 35.4941C4.69271 35.4976 4.69271 35.5024 4.69525 35.5059L4.88642 35.769C4.89211 35.7768 4.88445 35.7874 4.87524 35.7844L4.56593 35.6839C4.56181 35.6825 4.55729 35.684 4.55475 35.6875L4.36358 35.9506C4.35789 35.9585 4.34549 35.9544 4.34549 35.9448V35.6195C4.34549 35.6152 4.3427 35.6114 4.33858 35.61L4.02927 35.5095Z" fill="white"/>
</g>
<defs>
<filter id="filter0_f_2509_50540" x="0.721484" y="28.7449" width="1.46719" height="1.51016" filterUnits="userSpaceOnUse" color-interpolation-filters="sRGB">
<feFlood flood-opacity="0" result="BackgroundImageFix"/>
<feBlend mode="normal" in="SourceGraphic" in2="BackgroundImageFix" result="shape"/>
<feGaussianBlur stdDeviation="0.15" result="effect1_foregroundBlur_2509_50540"/>
</filter>
<filter id="filter1_f_2509_50540" x="5.72148" y="26.7449" width="1.46719" height="1.51016" filterUnits="userSpaceOnUse" color-interpolation-filters="sRGB">
<feFlood flood-opacity="0" result="BackgroundImageFix"/>
<feBlend mode="normal" in="SourceGraphic" in2="BackgroundImageFix" result="shape"/>
<feGaussianBlur stdDeviation="0.15" result="effect1_foregroundBlur_2509_50540"/>
</filter>
<filter id="filter2_f_2509_50540" x="3.72148" y="21.7449" width="1.46719" height="1.51016" filterUnits="userSpaceOnUse" color-interpolation-filters="sRGB">
<feFlood flood-opacity="0" result="BackgroundImageFix"/>
<feBlend mode="normal" in="SourceGraphic" in2="BackgroundImageFix" result="shape"/>
<feGaussianBlur stdDeviation="0.15" result="effect1_foregroundBlur_2509_50540"/>
</filter>
<filter id="filter3_f_2509_50540" x="8.72148" y="24.7449" width="1.46719" height="1.51016" filterUnits="userSpaceOnUse" color-interpolation-filters="sRGB">
<feFlood flood-opacity="0" result="BackgroundImageFix"/>
<feBlend mode="normal" in="SourceGraphic" in2="BackgroundImageFix" result="shape"/>
<feGaussianBlur stdDeviation="0.15" result="effect1_foregroundBlur_2509_50540"/>
</filter>
<filter id="filter4_f_2509_50540" x="0.721484" y="42.7449" width="1.46719" height="1.51016" filterUnits="userSpaceOnUse" color-interpolation-filters="sRGB">
<feFlood flood-opacity="0" result="BackgroundImageFix"/>
<feBlend mode="normal" in="SourceGraphic" in2="BackgroundImageFix" result="shape"/>
<feGaussianBlur stdDeviation="0.15" result="effect1_foregroundBlur_2509_50540"/>
</filter>
<filter id="filter5_f_2509_50540" x="7.72148" y="32.7449" width="1.46719" height="1.51016" filterUnits="userSpaceOnUse" color-interpolation-filters="sRGB">
<feFlood flood-opacity="0" result="BackgroundImageFix"/>
<feBlend mode="normal" in="SourceGraphic" in2="BackgroundImageFix" result="shape"/>
<feGaussianBlur stdDeviation="0.15" result="effect1_foregroundBlur_2509_50540"/>
</filter>
<filter id="filter6_f_2509_50540" x="5.72148" y="48.7449" width="1.46719" height="1.51016" filterUnits="userSpaceOnUse" color-interpolation-filters="sRGB">
<feFlood flood-opacity="0" result="BackgroundImageFix"/>
<feBlend mode="normal" in="SourceGraphic" in2="BackgroundImageFix" result="shape"/>
<feGaussianBlur stdDeviation="0.15" result="effect1_foregroundBlur_2509_50540"/>
</filter>
<filter id="filter7_f_2509_50540" x="7.72148" y="64.7449" width="1.46719" height="1.51016" filterUnits="userSpaceOnUse" color-interpolation-filters="sRGB">
<feFlood flood-opacity="0" result="BackgroundImageFix"/>
<feBlend mode="normal" in="SourceGraphic" in2="BackgroundImageFix" result="shape"/>
<feGaussianBlur stdDeviation="0.15" result="effect1_foregroundBlur_2509_50540"/>
</filter>
<filter id="filter8_f_2509_50540" x="9.72148" y="2.74492" width="1.46719" height="1.51016" filterUnits="userSpaceOnUse" color-interpolation-filters="sRGB">
<feFlood flood-opacity="0" result="BackgroundImageFix"/>
<feBlend mode="normal" in="SourceGraphic" in2="BackgroundImageFix" result="shape"/>
<feGaussianBlur stdDeviation="0.15" result="effect1_foregroundBlur_2509_50540"/>
</filter>
<filter id="filter9_f_2509_50540" x="4.72148" y="0.744922" width="1.46719" height="1.51016" filterUnits="userSpaceOnUse" color-interpolation-filters="sRGB">
<feFlood flood-opacity="0" result="BackgroundImageFix"/>
<feBlend mode="normal" in="SourceGraphic" in2="BackgroundImageFix" result="shape"/>
<feGaussianBlur stdDeviation="0.15" result="effect1_foregroundBlur_2509_50540"/>
</filter>
<filter id="filter10_f_2509_50540" x="3.72148" y="34.7449" width="1.46719" height="1.51016" filterUnits="userSpaceOnUse" color-interpolation-filters="sRGB">
<feFlood flood-opacity="0" result="BackgroundImageFix"/>
<feBlend mode="normal" in="SourceGraphic" in2="BackgroundImageFix" result="shape"/>
<feGaussianBlur stdDeviation="0.15" result="effect1_foregroundBlur_2509_50540"/>
</filter>
</defs>
</svg>
