<svg width="16" height="145" viewBox="0 0 16 145" fill="none" xmlns="http://www.w3.org/2000/svg">
<g filter="url(#filter0_f_2509_54563)">
<path d="M1.02927 71.5095C1.02006 71.5065 1.02006 71.4935 1.02927 71.4905L1.33858 71.39C1.3427 71.3886 1.34549 71.3848 1.34549 71.3805V71.0552C1.34549 71.0456 1.35789 71.0415 1.36358 71.0494L1.55475 71.3125C1.55729 71.316 1.56181 71.3175 1.56593 71.3161L1.87524 71.2156C1.88445 71.2126 1.89211 71.2232 1.88642 71.231L1.69525 71.4941C1.69271 71.4976 1.69271 71.5024 1.69525 71.5059L1.88642 71.769C1.89211 71.7768 1.88445 71.7874 1.87524 71.7844L1.56593 71.6839C1.56181 71.6825 1.55729 71.684 1.55475 71.6875L1.36358 71.9506C1.35789 71.9585 1.34549 71.9544 1.34549 71.9448V71.6195C1.34549 71.6152 1.3427 71.6114 1.33858 71.61L1.02927 71.5095Z" fill="white"/>
</g>
<g filter="url(#filter1_f_2509_54563)">
<path d="M6.02927 69.5095C6.02006 69.5065 6.02006 69.4935 6.02927 69.4905L6.33858 69.39C6.3427 69.3886 6.34549 69.3848 6.34549 69.3805V69.0552C6.34549 69.0456 6.35789 69.0415 6.36358 69.0494L6.55475 69.3125C6.55729 69.316 6.56181 69.3175 6.56593 69.3161L6.87524 69.2156C6.88445 69.2126 6.89211 69.2232 6.88642 69.231L6.69525 69.4941C6.69271 69.4976 6.69271 69.5024 6.69525 69.5059L6.88642 69.769C6.89211 69.7768 6.88445 69.7874 6.87524 69.7844L6.56593 69.6839C6.56181 69.6825 6.55729 69.684 6.55475 69.6875L6.36358 69.9506C6.35789 69.9585 6.34549 69.9544 6.34549 69.9448V69.6195C6.34549 69.6152 6.3427 69.6114 6.33858 69.61L6.02927 69.5095Z" fill="white"/>
</g>
<g filter="url(#filter2_f_2509_54563)">
<path d="M4.02927 64.5095C4.02006 64.5065 4.02006 64.4935 4.02927 64.4905L4.33858 64.39C4.3427 64.3886 4.34549 64.3848 4.34549 64.3805V64.0552C4.34549 64.0456 4.35789 64.0415 4.36358 64.0494L4.55475 64.3125C4.55729 64.316 4.56181 64.3175 4.56593 64.3161L4.87524 64.2156C4.88445 64.2126 4.89211 64.2232 4.88642 64.231L4.69525 64.4941C4.69271 64.4976 4.69271 64.5024 4.69525 64.5059L4.88642 64.769C4.89211 64.7768 4.88445 64.7874 4.87524 64.7844L4.56593 64.6839C4.56181 64.6825 4.55729 64.684 4.55475 64.6875L4.36358 64.9506C4.35789 64.9585 4.34549 64.9544 4.34549 64.9448V64.6195C4.34549 64.6152 4.3427 64.6114 4.33858 64.61L4.02927 64.5095Z" fill="white"/>
</g>
<g filter="url(#filter3_f_2509_54563)">
<path d="M9.02927 67.5095C9.02006 67.5065 9.02006 67.4935 9.02927 67.4905L9.33858 67.39C9.3427 67.3886 9.34549 67.3848 9.34549 67.3805V67.0552C9.34549 67.0456 9.35789 67.0415 9.36358 67.0494L9.55475 67.3125C9.55729 67.316 9.56181 67.3175 9.56593 67.3161L9.87524 67.2156C9.88445 67.2126 9.89211 67.2232 9.88642 67.231L9.69525 67.4941C9.69271 67.4976 9.69271 67.5024 9.69525 67.5059L9.88642 67.769C9.89211 67.7768 9.88445 67.7874 9.87524 67.7844L9.56593 67.6839C9.56181 67.6825 9.55729 67.684 9.55475 67.6875L9.36358 67.9506C9.35789 67.9585 9.34549 67.9544 9.34549 67.9448V67.6195C9.34549 67.6152 9.3427 67.6114 9.33858 67.61L9.02927 67.5095Z" fill="white"/>
</g>
<g filter="url(#filter4_f_2509_54563)">
<path d="M1.02927 85.5095C1.02006 85.5065 1.02006 85.4935 1.02927 85.4905L1.33858 85.39C1.3427 85.3886 1.34549 85.3848 1.34549 85.3805V85.0552C1.34549 85.0456 1.35789 85.0415 1.36358 85.0494L1.55475 85.3125C1.55729 85.316 1.56181 85.3175 1.56593 85.3161L1.87524 85.2156C1.88445 85.2126 1.89211 85.2232 1.88642 85.231L1.69525 85.4941C1.69271 85.4976 1.69271 85.5024 1.69525 85.5059L1.88642 85.769C1.89211 85.7768 1.88445 85.7874 1.87524 85.7844L1.56593 85.6839C1.56181 85.6825 1.55729 85.684 1.55475 85.6875L1.36358 85.9506C1.35789 85.9585 1.34549 85.9544 1.34549 85.9448V85.6195C1.34549 85.6152 1.3427 85.6114 1.33858 85.61L1.02927 85.5095Z" fill="white"/>
</g>
<g filter="url(#filter5_f_2509_54563)">
<path d="M8.02927 75.5095C8.02006 75.5065 8.02006 75.4935 8.02927 75.4905L8.33858 75.39C8.3427 75.3886 8.34549 75.3848 8.34549 75.3805V75.0552C8.34549 75.0456 8.35789 75.0415 8.36358 75.0494L8.55475 75.3125C8.55729 75.316 8.56181 75.3175 8.56593 75.3161L8.87524 75.2156C8.88445 75.2126 8.89211 75.2232 8.88642 75.231L8.69525 75.4941C8.69271 75.4976 8.69271 75.5024 8.69525 75.5059L8.88642 75.769C8.89211 75.7768 8.88445 75.7874 8.87524 75.7844L8.56593 75.6839C8.56181 75.6825 8.55729 75.684 8.55475 75.6875L8.36358 75.9506C8.35789 75.9585 8.34549 75.9544 8.34549 75.9448V75.6195C8.34549 75.6152 8.3427 75.6114 8.33858 75.61L8.02927 75.5095Z" fill="white"/>
</g>
<g filter="url(#filter6_f_2509_54563)">
<path d="M6.02927 91.5095C6.02006 91.5065 6.02006 91.4935 6.02927 91.4905L6.33858 91.39C6.3427 91.3886 6.34549 91.3848 6.34549 91.3805V91.0552C6.34549 91.0456 6.35789 91.0415 6.36358 91.0494L6.55475 91.3125C6.55729 91.316 6.56181 91.3175 6.56593 91.3161L6.87524 91.2156C6.88445 91.2126 6.89211 91.2232 6.88642 91.231L6.69525 91.4941C6.69271 91.4976 6.69271 91.5024 6.69525 91.5059L6.88642 91.769C6.89211 91.7768 6.88445 91.7874 6.87524 91.7844L6.56593 91.6839C6.56181 91.6825 6.55729 91.684 6.55475 91.6875L6.36358 91.9506C6.35789 91.9585 6.34549 91.9544 6.34549 91.9448V91.6195C6.34549 91.6152 6.3427 91.6114 6.33858 91.61L6.02927 91.5095Z" fill="white"/>
</g>
<g filter="url(#filter7_f_2509_54563)">
<path d="M8.02927 107.51C8.02006 107.507 8.02006 107.493 8.02927 107.49L8.33858 107.39C8.3427 107.389 8.34549 107.385 8.34549 107.38V107.055C8.34549 107.046 8.35789 107.042 8.36358 107.049L8.55475 107.312C8.55729 107.316 8.56181 107.317 8.56593 107.316L8.87524 107.216C8.88445 107.213 8.89211 107.223 8.88642 107.231L8.69525 107.494C8.69271 107.498 8.69271 107.502 8.69525 107.506L8.88642 107.769C8.89211 107.777 8.88445 107.787 8.87524 107.784L8.56593 107.684C8.56181 107.683 8.55729 107.684 8.55475 107.688L8.36358 107.951C8.35789 107.958 8.34549 107.954 8.34549 107.945V107.62C8.34549 107.615 8.3427 107.611 8.33858 107.61L8.02927 107.51Z" fill="white"/>
</g>
<g filter="url(#filter8_f_2509_54563)">
<path d="M10.0293 45.5095C10.0201 45.5065 10.0201 45.4935 10.0293 45.4905L10.3386 45.39C10.3427 45.3886 10.3455 45.3848 10.3455 45.3805V45.0552C10.3455 45.0456 10.3579 45.0415 10.3636 45.0494L10.5547 45.3125C10.5573 45.316 10.5618 45.3175 10.5659 45.3161L10.8752 45.2156C10.8845 45.2126 10.8921 45.2232 10.8864 45.231L10.6953 45.4941C10.6927 45.4976 10.6927 45.5024 10.6953 45.5059L10.8864 45.769C10.8921 45.7768 10.8845 45.7874 10.8752 45.7844L10.5659 45.6839C10.5618 45.6825 10.5573 45.684 10.5547 45.6875L10.3636 45.9506C10.3579 45.9585 10.3455 45.9544 10.3455 45.9448V45.6195C10.3455 45.6152 10.3427 45.6114 10.3386 45.61L10.0293 45.5095Z" fill="white"/>
</g>
<g filter="url(#filter9_f_2509_54563)">
<path d="M5.02927 43.5095C5.02006 43.5065 5.02006 43.4935 5.02927 43.4905L5.33858 43.39C5.3427 43.3886 5.34549 43.3848 5.34549 43.3805V43.0552C5.34549 43.0456 5.35789 43.0415 5.36358 43.0494L5.55475 43.3125C5.55729 43.316 5.56181 43.3175 5.56593 43.3161L5.87524 43.2156C5.88445 43.2126 5.89211 43.2232 5.88642 43.231L5.69525 43.4941C5.69271 43.4976 5.69271 43.5024 5.69525 43.5059L5.88642 43.769C5.89211 43.7768 5.88445 43.7874 5.87524 43.7844L5.56593 43.6839C5.56181 43.6825 5.55729 43.684 5.55475 43.6875L5.36358 43.9506C5.35789 43.9585 5.34549 43.9544 5.34549 43.9448V43.6195C5.34549 43.6152 5.3427 43.6114 5.33858 43.61L5.02927 43.5095Z" fill="white"/>
</g>
<g filter="url(#filter10_f_2509_54563)">
<path d="M4.02927 77.5095C4.02006 77.5065 4.02006 77.4935 4.02927 77.4905L4.33858 77.39C4.3427 77.3886 4.34549 77.3848 4.34549 77.3805V77.0552C4.34549 77.0456 4.35789 77.0415 4.36358 77.0494L4.55475 77.3125C4.55729 77.316 4.56181 77.3175 4.56593 77.3161L4.87524 77.2156C4.88445 77.2126 4.89211 77.2232 4.88642 77.231L4.69525 77.4941C4.69271 77.4976 4.69271 77.5024 4.69525 77.5059L4.88642 77.769C4.89211 77.7768 4.88445 77.7874 4.87524 77.7844L4.56593 77.6839C4.56181 77.6825 4.55729 77.684 4.55475 77.6875L4.36358 77.9506C4.35789 77.9585 4.34549 77.9544 4.34549 77.9448V77.6195C4.34549 77.6152 4.3427 77.6114 4.33858 77.61L4.02927 77.5095Z" fill="white"/>
</g>
<g filter="url(#filter11_f_2509_54563)">
<path d="M10 119L9.99999 33" stroke="url(#paint0_radial_2509_54563)" stroke-linecap="round"/>
</g>
<path d="M10 144L10 0.999993" stroke="url(#paint1_radial_2509_54563)" stroke-linecap="round"/>
<defs>
<filter id="filter0_f_2509_54563" x="0.722461" y="70.7454" width="1.46621" height="1.50918" filterUnits="userSpaceOnUse" color-interpolation-filters="sRGB">
<feFlood flood-opacity="0" result="BackgroundImageFix"/>
<feBlend mode="normal" in="SourceGraphic" in2="BackgroundImageFix" result="shape"/>
<feGaussianBlur stdDeviation="0.15" result="effect1_foregroundBlur_2509_54563"/>
</filter>
<filter id="filter1_f_2509_54563" x="5.72246" y="68.7454" width="1.46621" height="1.50918" filterUnits="userSpaceOnUse" color-interpolation-filters="sRGB">
<feFlood flood-opacity="0" result="BackgroundImageFix"/>
<feBlend mode="normal" in="SourceGraphic" in2="BackgroundImageFix" result="shape"/>
<feGaussianBlur stdDeviation="0.15" result="effect1_foregroundBlur_2509_54563"/>
</filter>
<filter id="filter2_f_2509_54563" x="3.72246" y="63.7454" width="1.46621" height="1.50918" filterUnits="userSpaceOnUse" color-interpolation-filters="sRGB">
<feFlood flood-opacity="0" result="BackgroundImageFix"/>
<feBlend mode="normal" in="SourceGraphic" in2="BackgroundImageFix" result="shape"/>
<feGaussianBlur stdDeviation="0.15" result="effect1_foregroundBlur_2509_54563"/>
</filter>
<filter id="filter3_f_2509_54563" x="8.72246" y="66.7454" width="1.46621" height="1.50918" filterUnits="userSpaceOnUse" color-interpolation-filters="sRGB">
<feFlood flood-opacity="0" result="BackgroundImageFix"/>
<feBlend mode="normal" in="SourceGraphic" in2="BackgroundImageFix" result="shape"/>
<feGaussianBlur stdDeviation="0.15" result="effect1_foregroundBlur_2509_54563"/>
</filter>
<filter id="filter4_f_2509_54563" x="0.722461" y="84.7454" width="1.46621" height="1.50918" filterUnits="userSpaceOnUse" color-interpolation-filters="sRGB">
<feFlood flood-opacity="0" result="BackgroundImageFix"/>
<feBlend mode="normal" in="SourceGraphic" in2="BackgroundImageFix" result="shape"/>
<feGaussianBlur stdDeviation="0.15" result="effect1_foregroundBlur_2509_54563"/>
</filter>
<filter id="filter5_f_2509_54563" x="7.72246" y="74.7454" width="1.46621" height="1.50918" filterUnits="userSpaceOnUse" color-interpolation-filters="sRGB">
<feFlood flood-opacity="0" result="BackgroundImageFix"/>
<feBlend mode="normal" in="SourceGraphic" in2="BackgroundImageFix" result="shape"/>
<feGaussianBlur stdDeviation="0.15" result="effect1_foregroundBlur_2509_54563"/>
</filter>
<filter id="filter6_f_2509_54563" x="5.72246" y="90.7454" width="1.46621" height="1.50918" filterUnits="userSpaceOnUse" color-interpolation-filters="sRGB">
<feFlood flood-opacity="0" result="BackgroundImageFix"/>
<feBlend mode="normal" in="SourceGraphic" in2="BackgroundImageFix" result="shape"/>
<feGaussianBlur stdDeviation="0.15" result="effect1_foregroundBlur_2509_54563"/>
</filter>
<filter id="filter7_f_2509_54563" x="7.72246" y="106.745" width="1.46621" height="1.50918" filterUnits="userSpaceOnUse" color-interpolation-filters="sRGB">
<feFlood flood-opacity="0" result="BackgroundImageFix"/>
<feBlend mode="normal" in="SourceGraphic" in2="BackgroundImageFix" result="shape"/>
<feGaussianBlur stdDeviation="0.15" result="effect1_foregroundBlur_2509_54563"/>
</filter>
<filter id="filter8_f_2509_54563" x="9.72246" y="44.7454" width="1.46621" height="1.50918" filterUnits="userSpaceOnUse" color-interpolation-filters="sRGB">
<feFlood flood-opacity="0" result="BackgroundImageFix"/>
<feBlend mode="normal" in="SourceGraphic" in2="BackgroundImageFix" result="shape"/>
<feGaussianBlur stdDeviation="0.15" result="effect1_foregroundBlur_2509_54563"/>
</filter>
<filter id="filter9_f_2509_54563" x="4.72246" y="42.7454" width="1.46621" height="1.50918" filterUnits="userSpaceOnUse" color-interpolation-filters="sRGB">
<feFlood flood-opacity="0" result="BackgroundImageFix"/>
<feBlend mode="normal" in="SourceGraphic" in2="BackgroundImageFix" result="shape"/>
<feGaussianBlur stdDeviation="0.15" result="effect1_foregroundBlur_2509_54563"/>
</filter>
<filter id="filter10_f_2509_54563" x="3.72246" y="76.7454" width="1.46621" height="1.50918" filterUnits="userSpaceOnUse" color-interpolation-filters="sRGB">
<feFlood flood-opacity="0" result="BackgroundImageFix"/>
<feBlend mode="normal" in="SourceGraphic" in2="BackgroundImageFix" result="shape"/>
<feGaussianBlur stdDeviation="0.15" result="effect1_foregroundBlur_2509_54563"/>
</filter>
<filter id="filter11_f_2509_54563" x="4.5" y="27.5" width="11" height="97" filterUnits="userSpaceOnUse" color-interpolation-filters="sRGB">
<feFlood flood-opacity="0" result="BackgroundImageFix"/>
<feBlend mode="normal" in="SourceGraphic" in2="BackgroundImageFix" result="shape"/>
<feGaussianBlur stdDeviation="2.5" result="effect1_foregroundBlur_2509_54563"/>
</filter>
<radialGradient id="paint0_radial_2509_54563" cx="0" cy="0" r="1" gradientUnits="userSpaceOnUse" gradientTransform="translate(10.75 76) scale(7.25 31.55)">
<stop stop-color="white"/>
<stop offset="1" stop-color="#020308" stop-opacity="0"/>
</radialGradient>
<radialGradient id="paint1_radial_2509_54563" cx="0" cy="0" r="1" gradientUnits="userSpaceOnUse" gradientTransform="translate(10.75 72.5) scale(7.25 52.461)">
<stop stop-color="white"/>
<stop offset="1" stop-color="#020308" stop-opacity="0"/>
</radialGradient>
</defs>
</svg>
